<svg width="133" height="165" viewBox="0 0 133 165" fill="none" xmlns="http://www.w3.org/2000/svg">
<path opacity="0.3" d="M170.667 80C170.667 80 128.439 86.8113 110.458 104.792C92.4778 122.772 85.6665 165 85.6665 165C85.6665 165 84.5718 116.502 64.4165 97.7083C47.5127 81.9461 9.84177 80.2135 2.0811 80.0234C1.16513 80.0156 0.666504 80 0.666504 80C0.666504 80 1.16575 80.001 2.0811 80.0234C10.1594 80.0919 50.7003 79.5496 67.9582 62.2917C87.1729 43.0769 85.6665 -5 85.6665 -5C85.6665 -5 88.3602 40.1937 106.917 58.75C125.473 77.3063 170.667 80 170.667 80Z" fill="#8A8EB9"/>
</svg>
