<svg width="73" height="56" viewBox="0 0 73 56" fill="none" xmlns="http://www.w3.org/2000/svg">
<g style="mix-blend-mode:screen">
<path d="M20.1772 1.40871C20.6545 1.05071 21.1977 0.790232 21.7757 0.642151C22.3537 0.49407 22.9552 0.461284 23.5458 0.545665C24.1365 0.630046 24.7048 0.829943 25.2182 1.13394C25.7316 1.43794 26.1801 1.84008 26.5381 2.31742C26.8961 2.79475 27.1566 3.33792 27.3047 3.91592C27.4528 4.49392 27.4855 5.09542 27.4012 5.68609C27.3168 6.27676 27.1169 6.84503 26.8129 7.35844C26.5089 7.87186 26.1067 8.32037 25.6294 8.67837C18.5233 14.0079 14.4523 19.1921 12.1215 23.7175C15.3218 22.8937 18.6993 23.0873 21.7845 24.2716C24.8697 25.4558 27.5093 27.5718 29.3364 30.3254C31.1636 33.079 32.0875 36.3335 31.9797 39.6364C31.8719 42.9393 30.7379 46.1266 28.7351 48.7552C26.7324 51.3839 23.9604 53.3233 20.8046 54.3039C17.6488 55.2846 14.2659 55.2577 11.126 54.227C7.98621 53.1963 5.24547 51.2131 3.28478 48.5529C1.32408 45.8927 0.24083 42.6878 0.185597 39.3836C-0.396602 33.8038 0.395828 28.1663 2.49371 22.9633C5.20621 16.1207 10.5085 8.6602 20.1772 1.40871ZM61.069 1.40871C61.5463 1.05071 62.0895 0.790232 62.6675 0.642151C63.2455 0.49407 63.847 0.461284 64.4377 0.545665C65.0284 0.630046 65.5966 0.829943 66.11 1.13394C66.6235 1.43794 67.072 1.84008 67.43 2.31742C67.788 2.79475 68.0484 3.33792 68.1965 3.91592C68.3446 4.49392 68.3774 5.09542 68.293 5.68609C68.2086 6.27676 68.0087 6.84503 67.7047 7.35844C67.4007 7.87186 66.9986 8.32037 66.5213 8.67837C59.4152 14.0079 55.3442 19.1921 53.0133 23.7175C56.2137 22.8937 59.5911 23.0873 62.6763 24.2716C65.7615 25.4558 68.4011 27.5718 70.2283 30.3254C72.0554 33.079 72.9793 36.3335 72.8715 39.6364C72.7638 42.9393 71.6297 46.1266 69.627 48.7552C67.6242 51.3839 64.8523 53.3233 61.6965 54.3039C58.5406 55.2846 55.1577 55.2577 52.0179 54.227C48.8781 53.1963 46.1373 51.2131 44.1766 48.5529C42.2159 45.8927 41.1327 42.6878 41.0774 39.3836C40.4952 33.8038 41.2877 28.1663 43.3856 22.9633C46.1026 16.1207 51.4004 8.6602 61.069 1.40871Z" fill="#B0B3D0"/>
</g>
</svg>
