<?xml version="1.0" standalone="no"?>
<!DOCTYPE svg PUBLIC "-//W3C//DTD SVG 1.1//EN" "http://www.w3.org/Graphics/SVG/1.1/DTD/svg11.dtd" >
<svg xmlns="http://www.w3.org/2000/svg" xmlns:xlink="http://www.w3.org/1999/xlink" version="1.1">
<metadata>
Created by FontForge 20190801 at Mon Aug 31 16:05:30 2020
 By Unknown
Copyright (c) 2017 Fontstore Pte Ltd. All rights reserved.
</metadata>
<defs>
<font id="Synonym-Regular" horiz-adv-x="491" >
  <font-face 
    font-family="Synonym"
    font-weight="400"
    font-stretch="normal"
    units-per-em="1000"
    panose-1="0 0 0 0 0 0 0 0 0 0"
    ascent="750"
    descent="-250"
    x-height="477"
    cap-height="700"
    bbox="-184 -251 1084 955"
    underline-thickness="35"
    underline-position="-80"
    unicode-range="U+0020-FB02"
  />
<missing-glyph horiz-adv-x="788" 
d="M119 700h550v-700h-550v700zM190 635v-570h408v570h-408z" />
    <glyph glyph-name="fi" unicode="fi" horiz-adv-x="632" 
d="M367 477l-8 -57h-168v-420h-66v420h-82v57h82v93q0 74 40.5 117t109.5 43q61 0 110 -31l-19 -52q-41 23 -84 23q-42 0 -66.5 -27.5t-24.5 -72.5v-93h176zM500 602q-20 0 -34 14t-14 34t14 34t34 14t33.5 -14t13.5 -34t-14 -34t-33 -14zM467 475l65 7v-482h-65v475z" />
    <glyph glyph-name="fl" unicode="fl" horiz-adv-x="632" 
d="M367 477l-8 -57h-168v-420h-66v420h-82v57h82v93q0 74 40.5 117t109.5 43q61 0 110 -31l-19 -52q-41 23 -84 23q-42 0 -66.5 -27.5t-24.5 -72.5v-93h176zM466 717l66 8v-725h-66v717z" />
    <glyph glyph-name=".notdef" horiz-adv-x="788" 
d="M119 700h550v-700h-550v700zM190 635v-570h408v570h-408z" />
    <glyph glyph-name=".null" horiz-adv-x="0" 
 />
    <glyph glyph-name="nonmarkingreturn" horiz-adv-x="333" 
 />
    <glyph glyph-name="space" unicode=" " horiz-adv-x="256" 
 />
    <glyph glyph-name="exclam" unicode="!" horiz-adv-x="314" 
d="M124 720h65v-518h-65v518zM122 6q-15 14 -15 35t15 36q14 14 35 14t36 -14q14 -15 14 -36t-14 -35q-15 -15 -36 -15t-35 15z" />
    <glyph glyph-name="quotedbl" unicode="&#x22;" horiz-adv-x="357" 
d="M117 516h-57l-10 204h79zM295 516h-58l-9 204h78z" />
    <glyph glyph-name="numbersign" unicode="#" horiz-adv-x="729" 
d="M638 258l-9 -51h-159l-53 -207h-60l53 207h-171l-53 -207h-60l53 207h-141l8 51h146l52 204h-154l9 52h158l48 186h61l-48 -186h170l48 186h60l-48 -186h142l-8 -52h-147l-52 -204h155zM305 462l-53 -204h171l52 204h-170z" />
    <glyph glyph-name="dollar" unicode="$" horiz-adv-x="607" 
d="M527 180q0 -79 -52 -130.5t-141 -58.5v-97h-61v97q-116 8 -209 65l26 60q88 -53 183 -61v275l-28 10q-168 56 -168 183q0 79 53.5 130t142.5 56v96h63v-97q103 -9 184 -61l-26 -59q-72 46 -158 55v-259l17 -6q90 -31 132 -79t42 -119zM264 408l9 -3v239q-57 -5 -90 -36.5
t-33 -80.5q0 -80 114 -119zM454 179q0 91 -120 131v-254q56 7 88 39.5t32 83.5z" />
    <glyph glyph-name="percent" unicode="%" horiz-adv-x="767" 
d="M198 396q-70 0 -113.5 43.5t-43.5 113.5t43.5 113.5t113.5 43.5q67 0 110 -44t43 -113t-43 -113t-110 -44zM89 0l524 700h64l-524 -700h-64zM197 443q45 0 72.5 30.5t27.5 79.5t-27.5 79t-72.5 30q-46 0 -73.5 -30t-27.5 -79q0 -50 27.5 -80t73.5 -30zM572 -10
q-70 0 -113.5 43.5t-43.5 113.5t43.5 113.5t113.5 43.5q67 0 110 -44t43 -113t-43 -113t-110 -44zM571 37q45 0 72.5 30.5t27.5 79.5t-27.5 79t-72.5 30q-46 0 -73.5 -30t-27.5 -79q0 -50 27.5 -80t73.5 -30z" />
    <glyph glyph-name="ampersand" unicode="&#x26;" horiz-adv-x="693" 
d="M676 0h-87l-96 94q-95 -104 -224 -104q-94 0 -158 50q-63 50 -63 128q0 61 39 110t122 95q-89 94 -89 178q0 71 49 115t126 44q67 0 114 -39q46 -40 46 -104q0 -112 -146 -198l-4 -3l185 -182q50 84 68 196l55 -16q-23 -129 -82 -221zM186 555q0 -36 17.5 -70t63.5 -81
l7 4q119 68 119 154q0 41 -29 67t-72 26q-46 0 -76 -27.5t-30 -72.5zM117 173q0 -56 45.5 -91t116.5 -35q99 0 174 86l-207 203q-71 -42 -100 -78t-29 -85z" />
    <glyph glyph-name="quotesingle" unicode="'" horiz-adv-x="179" 
d="M117 516h-57l-10 204h79z" />
    <glyph glyph-name="parenleft" unicode="(" horiz-adv-x="360" 
d="M73 300q0 143 60.5 259t176.5 186l37 -49q-205 -135 -205 -396q0 -265 208 -398l-37 -49q-118 72 -179 187t-61 260z" />
    <glyph glyph-name="parenright" unicode=")" horiz-adv-x="360" 
d="M286 300q0 -145 -60.5 -260t-178.5 -187l-37 49q208 135 208 398q0 260 -205 396l37 49q116 -70 176 -185.5t60 -259.5z" />
    <glyph glyph-name="asterisk" unicode="*" horiz-adv-x="294" 
d="M277 515l-23 -41l-90 59l7 -107h-48l7 107l-90 -59l-23 41l95 48l-95 48l23 41l90 -59l-7 107h48l-7 -107l90 59l23 -41l-95 -48z" />
    <glyph glyph-name="plus" unicode="+" 
d="M426 364v-58h-152v-151h-57v151h-152v58h152v152h57v-152h152z" />
    <glyph glyph-name="comma" unicode="," horiz-adv-x="219" 
d="M99 -139h-58l40 224h79z" />
    <glyph glyph-name="hyphen" unicode="-" horiz-adv-x="314" 
d="M294 319v-57h-274v57h274z" />
    <glyph glyph-name="period" unicode="." horiz-adv-x="215" 
d="M72 6q-15 14 -15 35t15 36q14 14 35 14t36 -14q15 -15 15 -36t-15 -35q-15 -15 -36 -15t-35 15z" />
    <glyph glyph-name="slash" unicode="/" horiz-adv-x="385" 
d="M300 740h65l-280 -877h-65z" />
    <glyph glyph-name="zero" unicode="0" horiz-adv-x="645" 
d="M323 -10q-117 0 -185 99q-68 98 -68 261q0 162 68 262q68 98 185 98t185 -98q67 -97 67 -262q0 -164 -67 -261q-67 -99 -185 -99zM323 54q87 0 133 81q46 80 46 215q0 137 -47 216t-132 79t-132 -80q-48 -81 -48 -215t48 -215q47 -81 132 -81z" />
    <glyph glyph-name="one" unicode="1" horiz-adv-x="468" 
d="M425 64v-64h-364v64h146v567l-132 -17l-10 64l204 25v-4l9 6v-641h147z" />
    <glyph glyph-name="two" unicode="2" horiz-adv-x="552" 
d="M480 64l-10 -64h-405l-9 58l231 267q58 68 81 110t23 85q0 55 -36 90t-93 35q-91 0 -173 -76l-36 54q96 87 211 87q88 0 144 -53t56 -136q0 -53 -28 -107t-93 -127l-195 -223h332z" />
    <glyph glyph-name="three" unicode="3" horiz-adv-x="541" 
d="M394 191q0 57 -40 95t-101 38h-104v60h90q59 0 98 39t39 99q0 55 -35 89t-92 34q-87 0 -157 -63l-36 54q88 74 198 74q86 0 141 -50q53 -50 53 -130q0 -56 -28 -101t-77 -70q58 -21 91 -67t33 -109q0 -87 -60 -139q-61 -54 -158 -54q-125 0 -214 80l39 51q73 -67 170 -67
q68 0 109 37.5t41 99.5z" />
    <glyph glyph-name="four" unicode="4" horiz-adv-x="570" 
d="M539 231l-9 -60h-106v-171h-69v171h-322l-9 54l334 475h66v-469h115zM357 597l-253 -366h251z" />
    <glyph glyph-name="five" unicode="5" horiz-adv-x="575" 
d="M148 315l-59 11l27 374h350l10 -65h-298l-17 -246q67 45 147 45q88 0 145 -59q56 -59 56 -154q0 -103 -62 -167q-63 -64 -165 -64q-126 0 -220 86l39 52q80 -74 180 -74q70 0 112.5 45t42.5 118q0 70 -39 113.5t-101 43.5q-81 0 -148 -59z" />
    <glyph glyph-name="six" unicode="6" horiz-adv-x="585" 
d="M526 213q0 -98 -59 -160q-60 -63 -153 -63q-114 0 -177 93.5t-63 263.5q0 74 14.5 137.5t44 115t80 81t117.5 29.5q102 0 181 -72l-40 -52q-62 59 -139 59q-105 0 -147 -91q-39 -81 -39 -207v-22q70 109 185 109q84 0 140 -62q55 -61 55 -159zM312 373q-100 0 -162 -102
q10 -105 52.5 -161t112.5 -56q61 0 99.5 45t38.5 115t-39.5 114.5t-101.5 44.5z" />
    <glyph glyph-name="seven" unicode="7" horiz-adv-x="473" 
d="M214 0h-79q40 335 229 635h-353l9 65h418l9 -55q-197 -302 -233 -645z" />
    <glyph glyph-name="eight" unicode="8" horiz-adv-x="576" 
d="M514 177q0 -80 -65 -133q-65 -54 -163 -54q-100 0 -161 52q-63 51 -63 133q0 56 33 104.5t93 80.5q-106 52 -106 166q0 79 59 132q58 52 149 52q88 0 146 -49q57 -49 57 -127q0 -52 -27.5 -97.5t-77.5 -76.5q126 -56 126 -183zM266 399l63 -19q94 54 94 147
q0 53 -37.5 86.5t-95.5 33.5q-59 0 -97 -34t-38 -87q0 -94 111 -127zM133 183q0 -58 43 -94.5t112 -36.5q67 0 110 36t43 91q0 100 -120 136l-74 23q-54 -25 -84 -66t-30 -89z" />
    <glyph glyph-name="nine" unicode="9" horiz-adv-x="570" 
d="M503 353q0 -75 -14.5 -138.5t-43.5 -115t-79 -80.5t-116 -29q-110 0 -183 70l40 51q59 -57 141 -57q65 0 108.5 42t59.5 109q15 63 15 148v17q-71 -104 -181 -104q-87 0 -143 62t-56 159t60 160t153 63q114 0 176.5 -93.5t62.5 -263.5zM124 487q0 -72 39.5 -116.5
t101.5 -44.5q101 0 163 99q-23 220 -164 220q-61 0 -100.5 -44.5t-39.5 -113.5z" />
    <glyph glyph-name="colon" unicode=":" horiz-adv-x="216" 
d="M72 402q-15 14 -15 35t15 36q15 14 36 14t36 -14q14 -15 14 -36t-14 -35q-15 -15 -36 -15t-36 15zM72 6q-15 14 -15 35t15 36q15 14 36 14t36 -14q14 -15 14 -36t-14 -35q-15 -15 -36 -15t-36 15z" />
    <glyph glyph-name="semicolon" unicode=";" horiz-adv-x="220" 
d="M76 402q-15 14 -15 35t15 36q15 14 36 14t36 -14q14 -15 14 -36t-14 -35q-15 -15 -36 -15t-36 15zM91 -139h-58l40 224h78z" />
    <glyph glyph-name="less" unicode="&#x3c;" 
d="M135 331l291 -121v-62l-361 150v66l361 154v-64z" />
    <glyph glyph-name="equal" unicode="=" 
d="M426 458v-58h-361v58h361zM426 270v-57h-361v57h361z" />
    <glyph glyph-name="greater" unicode="&#x3e;" 
d="M356 333l-291 121v64l361 -151v-66l-361 -153v62z" />
    <glyph glyph-name="question" unicode="?" horiz-adv-x="465" 
d="M328 379l-24 -21q-46 -43 -59 -65q-15 -25 -15 -60v-31h-66v30q0 52 21 85q19 30 74 81l23 21q68 62 68 126q0 57 -37.5 91.5t-99.5 34.5q-93 0 -169 -66l-32 50q91 75 203 75q88 0 147 -50q57 -51 57 -133q0 -52 -21.5 -88.5t-69.5 -79.5zM231 6q-15 -15 -36 -15t-35 15
q-15 14 -15 35t15 36q14 14 35 14t36 -14q15 -15 15 -36t-15 -35z" />
    <glyph glyph-name="at" unicode="@" horiz-adv-x="905" 
d="M239 160q0 114 72 195q71 80 180 80q70 0 138 -40l-44 -239q-9 -50 11.5 -85t58.5 -35q64 0 105 63t41 171q0 138 -91 223t-232 85q-166 0 -271 -105q-105 -107 -105 -273q0 -160 96 -255q97 -95 256 -95q109 0 217 47l10 -50q-114 -46 -227 -46q-181 0 -293 110
q-112 109 -112 288q0 190 121 308q122 119 312 119q160 0 267 -99q106 -99 106 -255q0 -131 -58 -207t-146 -76q-45 0 -79 29.5t-43 74.5q-83 -104 -163 -104q-57 0 -92 45.5t-35 125.5zM298 160q0 -122 76 -122q70 0 155 111l38 217q-42 20 -79 20q-81 0 -135 -67
q-55 -67 -55 -159z" />
    <glyph glyph-name="A" unicode="A" horiz-adv-x="705" 
d="M186 183l-75 -183h-73l283 700h62l284 -700h-76l-75 183h-330zM351 609l-141 -365h282z" />
    <glyph glyph-name="B" unicode="B" horiz-adv-x="678" 
d="M384 0h-265v700h251q95 0 151.5 -49.5t56.5 -130.5q0 -110 -105 -159q129 -45 129 -170q0 -83 -60 -137t-158 -54zM366 639h-176v-254h176q65 0 102 35.5t37 93.5q0 57 -37.5 91t-101.5 34zM190 60h192q66 0 106.5 38.5t40.5 98.5q0 59 -40.5 94.5t-106.5 35.5h-192v-267
z" />
    <glyph glyph-name="C" unicode="C" horiz-adv-x="690" 
d="M149 350q0 -132 69 -214t183 -82t185 70l40 -50q-85 -84 -226 -84q-147 0 -235 100q-89 100 -89 260t90 260t234 100q139 0 226 -84l-40 -51q-70 70 -185 70q-114 0 -183 -82q-69 -83 -69 -213z" />
    <glyph glyph-name="D" unicode="D" horiz-adv-x="758" 
d="M363 0h-244v700h244q143 0 231 -97t88 -253q0 -155 -88 -252q-89 -98 -231 -98zM363 635h-173v-571h173q110 0 178 80t68 206q0 125 -68 205t-178 80z" />
    <glyph glyph-name="E" unicode="E" horiz-adv-x="630" 
d="M561 64l-10 -64h-432v700h423l10 -65h-362v-247h312v-63h-312v-261h371z" />
    <glyph glyph-name="F" unicode="F" horiz-adv-x="581" 
d="M489 374v-65h-299v-309h-71v700h406l9 -65h-344v-261h299z" />
    <glyph glyph-name="G" unicode="G" horiz-adv-x="747" 
d="M415 364h237v-289q-44 -41 -109 -63t-135 -22q-148 0 -240 99q-92 100 -92 261q0 160 93 260q91 100 240 100q142 0 230 -85l-40 -50q-73 70 -188 70q-118 0 -190 -82q-72 -83 -72 -213q0 -131 72 -214q70 -82 189 -82q101 0 173 51v196h-168v63z" />
    <glyph glyph-name="H" unicode="H" horiz-adv-x="788" 
d="M119 700h71v-310h408v310h71v-700h-71v325h-408v-325h-71v700z" />
    <glyph glyph-name="I" unicode="I" horiz-adv-x="312" 
d="M120 700h71v-700h-71v700z" />
    <glyph glyph-name="J" unicode="J" horiz-adv-x="499" 
d="M21 45l31 55q52 -46 129 -46q60 0 96.5 40.5t36.5 109.5v496h71v-496q0 -98 -56 -156q-55 -58 -145 -58q-102 0 -163 55z" />
    <glyph glyph-name="K" unicode="K" horiz-adv-x="691" 
d="M119 0v700h71v-363l348 363h88l-313 -324l332 -376h-90l-294 329l-71 -77v-252h-71z" />
    <glyph glyph-name="L" unicode="L" horiz-adv-x="589" 
d="M542 64l-10 -64h-413v700h71v-636h352z" />
    <glyph glyph-name="M" unicode="M" horiz-adv-x="996" 
d="M210 571l-13 -340l-10 -231h-71l33 700h70l280 -625l280 625h69l32 -700h-71l-10 231l-13 332l-253 -563h-69z" />
    <glyph glyph-name="N" unicode="N" horiz-adv-x="801" 
d="M611 700h71v-700h-65l-431 586l4 -331v-255h-71v700h68l427 -581l-3 325v256z" />
    <glyph glyph-name="O" unicode="O" horiz-adv-x="790" 
d="M395 -10q-140 0 -229 101q-90 101 -90 259q0 159 90 259q90 101 229 101q143 0 231 -100t88 -260q0 -159 -88 -259q-89 -101 -231 -101zM395 54q110 0 178 83t68 213t-68 213q-67 82 -178 82q-110 0 -177 -82q-69 -83 -69 -213t69 -213q68 -83 177 -83z" />
    <glyph glyph-name="P" unicode="P" horiz-adv-x="661" 
d="M190 0h-71v700h251q104 0 168 -61t64 -158t-66 -159q-67 -62 -171 -62h-175v-260zM365 638h-175v-316h175q73 0 117.5 43.5t44.5 114.5t-45 114.5t-117 43.5z" />
    <glyph glyph-name="Q" unicode="Q" horiz-adv-x="790" 
d="M395 -10q-140 0 -229 101q-90 101 -90 259q0 159 89 260q88 100 230 100q143 0 231 -100t88 -260q0 -104 -39.5 -185.5t-111.5 -127.5q48 -77 147 -141l-47 -55q-107 77 -160 167q-49 -18 -108 -18zM395 54q110 0 178 83t68 213t-68 213q-67 82 -178 82q-110 0 -177 -82
q-69 -83 -69 -213t69 -213q68 -83 177 -83z" />
    <glyph glyph-name="R" unicode="R" horiz-adv-x="684" 
d="M439 279l168 -279h-81l-162 271h-174v-271h-71v700h255q102 0 167 -59q64 -60 64 -156q0 -77 -45 -132.5t-121 -73.5zM370 638h-180v-306h180q72 0 115.5 42t43.5 111t-43.5 111t-115.5 42z" />
    <glyph glyph-name="S" unicode="S" horiz-adv-x="607" 
d="M527 180q0 -85 -60 -137.5t-161 -52.5q-132 0 -242 66l26 60q103 -62 215 -62q68 0 108.5 34t40.5 91q0 91 -121 131l-88 30q-168 56 -168 183q0 84 59 135.5t157 51.5q128 0 227 -63l-26 -59q-93 57 -200 57q-66 0 -105 -32t-39 -86q0 -80 114 -119l89 -30
q90 -31 132 -79t42 -119z" />
    <glyph glyph-name="T" unicode="T" horiz-adv-x="631" 
d="M579 700l10 -65h-238v-635h-71v635h-238l10 65h527z" />
    <glyph glyph-name="U" unicode="U" horiz-adv-x="755" 
d="M180 700v-427q0 -102 52 -160.5t145 -58.5t145.5 58.5t52.5 160.5v427h71v-427q0 -132 -72 -207.5t-197 -75.5q-124 0 -196 75.5t-72 207.5v427h71z" />
    <glyph glyph-name="V" unicode="V" horiz-adv-x="682" 
d="M575 700h71l-270 -700h-70l-271 700h74l126 -321l107 -286l107 286z" />
    <glyph glyph-name="W" unicode="W" horiz-adv-x="1009" 
d="M699 0l-194 612l-196 -612h-70l-185 700h75l73 -279l78 -313l191 592h68l192 -595l78 316l75 279h69l-183 -700h-71z" />
    <glyph glyph-name="X" unicode="X" horiz-adv-x="676" 
d="M335 304l-218 -304h-83l260 360l-249 340h86l208 -285l205 285h83l-247 -341l262 -359h-85z" />
    <glyph glyph-name="Y" unicode="Y" horiz-adv-x="653" 
d="M546 700h80l-264 -424v-276h-71v276l-265 424h82l220 -355z" />
    <glyph glyph-name="Z" unicode="Z" horiz-adv-x="613" 
d="M563 64v-64h-508l-9 58l417 577h-399v65h481l9 -59l-418 -577h427z" />
    <glyph glyph-name="bracketleft" unicode="[" horiz-adv-x="379" 
d="M184 -79h178v-58h-243v862h239v-58h-174v-746z" />
    <glyph glyph-name="backslash" unicode="\" horiz-adv-x="385" 
d="M300 -137l-280 877h65l280 -877h-65z" />
    <glyph glyph-name="bracketright" unicode="]" horiz-adv-x="379" 
d="M17 -137v58h178v746h-178v58h243v-862h-243z" />
    <glyph glyph-name="asciicircum" unicode="^" 
d="M430 338h-64l-121 291l-123 -290h-62l153 361h67z" />
    <glyph glyph-name="underscore" unicode="_" horiz-adv-x="444" 
d="M424 -101v-58h-404v58h404z" />
    <glyph glyph-name="grave" unicode="`" horiz-adv-x="500" 
d="M175 725l99 -162h-50l-119 162h70z" />
    <glyph glyph-name="a" unicode="a" horiz-adv-x="523" 
d="M61 96q0 62 66 106q64 41 224 79v22q0 61 -31 93t-89 32q-68 0 -125 -51l-24 50q69 60 162 60q82 0 126 -46.5t44 -133.5v-192q0 -32 12.5 -46t46.5 -19l-13 -60q-54 6 -79 26t-29 61q-35 -39 -82.5 -63t-90.5 -24q-53 0 -85.5 29.5t-32.5 76.5zM128 104q0 -29 20 -46
t55 -17t74.5 24t73.5 64v105q-117 -25 -170 -56t-53 -74z" />
    <glyph glyph-name="b" unicode="b" horiz-adv-x="572" 
d="M99 38v679l66 8v-339q32 47 78 74t95 27q79 0 126 -63.5t47 -169.5q0 -130 -65 -197q-66 -67 -166 -67q-86 0 -181 48zM320 427q-41 0 -83 -29t-72 -75v-247q57 -26 113 -26q75 0 119.5 50.5t44.5 152.5q0 81 -32 127.5t-90 46.5z" />
    <glyph glyph-name="c" unicode="c" horiz-adv-x="493" 
d="M128 243v-10q0 -84 42 -134.5t113 -50.5q77 0 134 59l36 -42q-73 -75 -172 -75q-100 0 -160 69q-60 67 -60 179t60 181q60 68 160 68q102 0 171 -74l-36 -43q-55 58 -133 58q-71 0 -113 -50.5t-42 -134.5z" />
    <glyph glyph-name="d" unicode="d" horiz-adv-x="573" 
d="M61 222q0 117 62 191t159 74q70 0 126 -42v272l66 8v-725h-66v93q-33 -48 -79 -75.5t-94 -27.5q-79 0 -126.5 63t-47.5 169zM129 225q0 -82 32.5 -128.5t90.5 -46.5q42 0 84.5 29t71.5 77v230q-53 41 -117 41q-74 0 -118 -55t-44 -147z" />
    <glyph glyph-name="e" unicode="e" horiz-adv-x="527" 
d="M287 47q79 0 135 59l37 -42q-68 -74 -175 -74q-100 0 -161 69q-62 70 -62 179t59 180q58 69 151 69q88 0 143 -61q56 -62 56 -161l-7 -12l-336 -17v-3q0 -84 44 -135t116 -51zM271 433q-57 0 -95.5 -39.5t-46.5 -108.5l273 16q-7 61 -42.5 96.5t-88.5 35.5z" />
    <glyph glyph-name="f" unicode="f" horiz-adv-x="379" 
d="M369 477l-8 -57h-170v-420h-66v420h-82v57h82v93q0 74 40.5 117t109.5 43t122 -41l-26 -51q-43 32 -89 32q-42 0 -66.5 -27.5t-24.5 -72.5v-93h178z" />
    <glyph glyph-name="g" unicode="g" horiz-adv-x="544" 
d="M502 -78q0 -66 -68 -110q-69 -42 -177 -42q-97 0 -154.5 36t-57.5 97q0 44 35 77t100 51q-55 22 -55 64q0 46 64 65q-54 18 -85 59.5t-31 97.5q0 76 53.5 123t139.5 47q50 0 87 -15l158 16l-8 -55l-93 3q49 -46 49 -119t-51.5 -120t-134.5 -49q-83 -9 -83 -40
q0 -27 58 -37l104 -19q150 -26 150 -130zM175 231q34 -34 91 -34q58 0 92 33t34 87t-34 87q-35 32 -92 32q-56 0 -91 -33t-35 -86t35 -86zM111 -90q0 -42 39 -64.5t112 -22.5q77 0 124.5 27t47.5 69q0 63 -93 79l-99 16q-60 -14 -95.5 -42t-35.5 -62z" />
    <glyph glyph-name="h" unicode="h" horiz-adv-x="587" 
d="M494 323v-323h-66v311q0 53 -24.5 84t-67.5 31q-45 0 -91 -36.5t-80 -97.5v-292h-66v717l66 8v-364q36 58 87 92t104 34q65 0 101.5 -43t36.5 -121z" />
    <glyph glyph-name="i" unicode="i" horiz-adv-x="265" 
d="M132 602q-19 0 -33 14t-14 34t13.5 34t33.5 14t33.5 -14t13.5 -34t-13.5 -34t-33.5 -14zM99 475l66 7v-482h-66v475z" />
    <glyph glyph-name="j" unicode="j" horiz-adv-x="271" 
d="M139 602q-20 0 -34 14t-14 34q0 19 14 33.5t34 14.5q19 0 33 -14.5t14 -33.5t-14 -33.5t-33 -14.5zM106 475l65 7v-531q0 -166 -146 -181l-15 60q50 0 73 28.5t23 92.5v524z" />
    <glyph glyph-name="k" unicode="k" horiz-adv-x="520" 
d="M99 717l66 8v-495l232 247h82l-206 -213l229 -264h-83l-193 224l-61 -65v-159h-66v717z" />
    <glyph glyph-name="l" unicode="l" horiz-adv-x="265" 
d="M99 717l66 8v-725h-66v717z" />
    <glyph glyph-name="m" unicode="m" horiz-adv-x="875" 
d="M83 475l66 7l14 -125q34 59 84 94.5t102 35.5q51 0 83 -33.5t40 -94.5q36 59 85 93.5t100 34.5q59 0 92 -43.5t33 -120.5v-323h-66v312q0 53 -21.5 83.5t-58.5 30.5q-41 0 -85 -36t-77 -95v-295h-66v312q0 53 -21.5 83.5t-58.5 30.5q-41 0 -85 -36t-77 -95v-295h-66v319z
" />
    <glyph glyph-name="n" unicode="n" horiz-adv-x="588" 
d="M83 475l66 7l14 -125q36 61 87 95.5t107 34.5q65 0 101.5 -43t36.5 -121v-323h-66v311q0 53 -24.5 84t-67.5 31q-45 0 -91 -36.5t-80 -97.5v-292h-66v319z" />
    <glyph glyph-name="o" unicode="o" horiz-adv-x="566" 
d="M443 59q-61 -69 -160 -69t-160 69q-62 70 -62 179q0 110 62 180q61 69 160 69t160 -69q61 -68 61 -180q0 -111 -61 -179zM172 101q42 -53 111 -53t111 53q42 52 42 137q0 86 -41.5 138t-111.5 52t-112 -52t-42 -138q0 -85 43 -137z" />
    <glyph glyph-name="p" unicode="p" horiz-adv-x="573" 
d="M83 475l66 7l12 -104q32 51 79.5 80t98.5 29q79 0 126 -63.5t47 -169.5q0 -131 -63 -197q-64 -67 -159 -67q-64 0 -124 28v-238h-66v539zM321 427q-41 0 -83 -29t-72 -75v-247q57 -26 113 -26q75 0 119.5 50.5t44.5 152.5q0 81 -32 127.5t-90 46.5z" />
    <glyph glyph-name="q" unicode="q" horiz-adv-x="572" 
d="M472 439v-659h-65v311q-33 -46 -79 -73.5t-93 -27.5q-79 0 -126.5 63t-47.5 169q0 132 66 199q65 66 165 66q86 0 180 -48zM293 427q-75 0 -119.5 -50.5t-44.5 -151.5q0 -82 32.5 -128.5t90.5 -46.5q42 0 84 28.5t71 76.5v245q-59 27 -114 27z" />
    <glyph glyph-name="r" unicode="r" horiz-adv-x="377" 
d="M83 475l66 7l14 -123q32 48 80.5 82t93.5 41l9 -69q-108 -6 -180 -106v-307h-66v319z" />
    <glyph glyph-name="s" unicode="s" horiz-adv-x="468" 
d="M216 281l60 -15q131 -32 131 -137q0 -64 -45.5 -101.5t-126.5 -37.5q-101 0 -181 56l26 50q77 -51 154 -51q50 0 78 21.5t28 58.5q0 31 -20.5 50.5t-67.5 31.5l-60 15q-123 28 -123 128q0 63 43 100t119 37q94 0 171 -55l-26 -51q-70 51 -144 51q-45 0 -71 -20.5
t-26 -56.5q0 -55 81 -74z" />
    <glyph glyph-name="t" unicode="t" horiz-adv-x="408" 
d="M110 146v274h-82v57h82l4 119l62 7v-126h187l-7 -57h-180v-270q0 -100 90 -100q46 0 90 30l27 -51q-54 -39 -126 -39q-70 0 -108.5 39.5t-38.5 116.5z" />
    <glyph glyph-name="u" unicode="u" horiz-adv-x="568" 
d="M485 2l-66 -7l-12 111q-34 -53 -85 -84.5t-103 -31.5q-126 0 -126 170v315l65 7v-317q0 -114 84 -114q43 0 86 30.5t74 81.5v312l66 7v-324z" />
    <glyph glyph-name="v" unicode="v" horiz-adv-x="501" 
d="M471 477l-186 -475l-66 -7l-189 482h70l151 -399l152 399h68z" />
    <glyph glyph-name="w" unicode="w" horiz-adv-x="767" 
d="M724 477l-137 -475l-64 -7l-139 398l-137 -391l-65 -7l-138 482h70l103 -389l134 389h65l135 -393l104 393h69z" />
    <glyph glyph-name="x" unicode="x" horiz-adv-x="498" 
d="M246 200l-144 -200h-74l181 250l-166 227h78l130 -178l127 178h74l-165 -227l183 -250h-78z" />
    <glyph glyph-name="y" unicode="y" horiz-adv-x="502" 
d="M59 -230l-15 60q65 4 98 28q32 24 57 90l20 50l-188 479h70l150 -398l152 398h68l-187 -477h-1l-24 -62q-35 -91 -76 -124q-43 -35 -124 -44z" />
    <glyph glyph-name="z" unicode="z" horiz-adv-x="468" 
d="M418 57v-57h-364l-10 45l286 375h-266v57h339l11 -45l-287 -375h291z" />
    <glyph glyph-name="braceleft" unicode="{" horiz-adv-x="439" 
d="M230 133l-20 -80q-17 -66 7 -103t82 -37q54 0 103 39l28 -50q-58 -49 -140 -49q-87 0 -128 55.5t-18 152.5l22 86q14 56 -14.5 90t-79.5 34h-57v60h57q48 0 78 34q30 33 16 90l-22 87q-23 97 18 152.5t128 55.5q82 0 140 -49l-28 -50q-49 39 -103 39q-58 0 -82 -37
t-7 -104l20 -80q29 -117 -68 -168q97 -51 68 -168z" />
    <glyph glyph-name="bar" unicode="|" horiz-adv-x="317" 
d="M125 720h66v-960h-66v960z" />
    <glyph glyph-name="braceright" unicode="}" horiz-adv-x="439" 
d="M229 53l-20 80q-15 58 3 101t64 67q-46 24 -64 67t-3 101l20 80q16 68 -8 104.5t-82 36.5q-53 0 -102 -39l-29 50q59 49 140 49q88 0 129 -55t17 -153l-21 -87q-15 -57 15 -90q30 -34 78 -34h57v-60h-57q-51 0 -79 -34t-14 -90l21 -86q24 -98 -17 -153t-129 -55
q-81 0 -140 49l29 50q49 -39 102 -39q57 0 81.5 37t8.5 103z" />
    <glyph glyph-name="asciitilde" unicode="~" 
d="M324 341q39 0 69 36l29 -41q-34 -54 -103 -54q-33 0 -87 25q-37 19 -65 19q-39 0 -70 -39l-30 40q35 57 106 57q36 0 81 -22q39 -21 70 -21z" />
    <glyph glyph-name="uni00A0" unicode="&#xa0;" horiz-adv-x="256" 
 />
    <glyph glyph-name="exclamdown" unicode="&#xa1;" horiz-adv-x="305" 
d="M117 473q14 14 35 14t36 -14q15 -15 15 -36t-15 -35q-15 -15 -36 -15t-35 15q-15 14 -15 35t15 36zM185 -241h-66v516h66v-516z" />
    <glyph glyph-name="cent" unicode="&#xa2;" horiz-adv-x="501" 
d="M246 485v88h57v-87q86 -7 149 -73l-36 -43q-48 49 -113 57v-378q63 7 114 58l36 -42q-63 -66 -150 -74v-87h-57v88q-85 13 -135 79t-50 167t50 167.5t135 79.5zM128 243v-10q0 -72 31.5 -120t86.5 -61v372q-55 -13 -86.5 -61t-31.5 -120z" />
    <glyph glyph-name="sterling" unicode="&#xa3;" horiz-adv-x="550" 
d="M407 382l-10 -50h-175l6 -17q31 -92 31 -137q0 -75 -50 -116h302l-13 -62h-449v57q146 0 146 112q0 36 -37 143l-7 20h-102v50h85q-34 99 -34 151q0 79 58 128q56 49 147 49q120 0 193 -67l-32 -49q-61 55 -157 55q-62 0 -101 -34.5t-39 -87.5q0 -45 35 -145h203z" />
    <glyph glyph-name="currency" unicode="&#xa4;" horiz-adv-x="405" 
d="M125 273l-58 -58l-35 35l58 58q-21 36 -21 77q0 44 22 76l-59 59l35 35l59 -59q32 22 76 22q43 0 77 -22l59 59l35 -35l-60 -59q22 -32 22 -76q0 -41 -21 -76l59 -59l-35 -35l-59 59q-32 -23 -77 -23t-77 22zM201 297q38 0 61.5 24t23.5 64q0 39 -23.5 63t-61.5 24
q-37 0 -60 -24t-23 -63q0 -40 23 -64t60 -24z" />
    <glyph glyph-name="yen" unicode="&#xa5;" horiz-adv-x="654" 
d="M574 204v-50h-211v-154h-71v154h-210v50h210v100h-210v50h182l-237 346h82l219 -320l219 320h79l-236 -346h184v-50h-211v-100h211z" />
    <glyph glyph-name="brokenbar" unicode="&#xa6;" horiz-adv-x="317" 
d="M125 309v411h66v-411h-66zM125 -240v410h66v-410h-66z" />
    <glyph glyph-name="section" unicode="&#xa7;" horiz-adv-x="529" 
d="M271 677q-46 0 -72.5 -21t-26.5 -56q0 -31 21 -54.5t70 -52.5l96 -57q98 -57 98 -134q0 -82 -108 -128q74 -53 74 -127q0 -60 -44 -96t-118 -36q-93 0 -171 54l26 49q66 -48 141 -48q46 0 73 20.5t27 55.5q0 32 -22 56.5t-69 50.5l-97 57q-97 57 -97 134q0 82 108 128
q-75 54 -75 128q0 60 44 96t118 36q95 0 171 -54l-26 -50q-65 49 -141 49zM136 353q0 -51 78 -97l94 -55q85 30 85 93q0 50 -79 96l-94 56q-84 -34 -84 -93z" />
    <glyph glyph-name="dieresis" unicode="&#xa8;" horiz-adv-x="497" 
d="M195 611q-13 -13 -32 -13t-31 13q-13 13 -13 32t13 32q12 13 31 13t32 -13t13 -32t-13 -32zM366 611q-13 -13 -32 -13t-32 13t-13 32t13 32t32 13t32 -13q12 -13 12 -31.5t-12 -32.5z" />
    <glyph glyph-name="copyright" unicode="&#xa9;" horiz-adv-x="878" 
d="M183 608q106 104 256 104t256 -104q105 -105 105 -258q0 -154 -105 -257q-105 -105 -256 -105t-256 105q-105 104 -105 257t105 258zM439 678q-138 0 -231 -95q-94 -94 -94 -233t94 -233q94 -96 231 -96t232 96q93 95 93 233t-94 233q-95 95 -231 95zM294 189
q-56 61 -56 157t56 158q56 60 147 60q82 0 140 -49l-25 -45q-50 41 -116 41q-65 0 -104.5 -46t-39.5 -119t39.5 -118.5t104.5 -45.5q70 0 116 42l25 -45q-59 -50 -143 -50q-88 0 -144 60z" />
    <glyph glyph-name="ordfeminine" unicode="&#xaa;" horiz-adv-x="381" 
d="M43 426q0 46 48 77t161 58v14q0 40 -21.5 62t-60.5 22q-48 0 -89 -38l-18 45q50 44 115 44q62 0 94.5 -34.5t32.5 -97.5v-137q0 -23 9 -32.5t33 -13.5l-14 -52q-39 5 -57.5 19t-22.5 41q-57 -60 -121 -60q-40 0 -64.5 23t-24.5 60zM100 429q0 -19 13 -30t35 -11
q54 0 104 60v71q-81 -18 -116.5 -39t-35.5 -51z" />
    <glyph glyph-name="guillemotleft" unicode="&#xab;" horiz-adv-x="618" 
d="M99 279l208 -161l-26 -47l-235 178v60l235 178l26 -48zM366 279l208 -161l-26 -47l-235 178v60l235 178l26 -48z" />
    <glyph glyph-name="logicalnot" unicode="&#xac;" 
d="M65 306v58h356v-211h-58v153h-298z" />
    <glyph glyph-name="uni00AD" unicode="&#xad;" horiz-adv-x="0" 
 />
    <glyph glyph-name="registered" unicode="&#xae;" horiz-adv-x="878" 
d="M183 608q106 104 256 104t256 -104q105 -105 105 -258q0 -154 -105 -257q-105 -105 -256 -105t-256 105q-105 104 -105 257t105 258zM439 678q-138 0 -231 -95q-94 -94 -94 -233t94 -233q94 -96 231 -96t232 96q93 95 93 233t-94 233q-95 95 -231 95zM500 302l100 -166
h-62l-96 160h-84v-160h-55v423h153q63 0 102.5 -36.5t39.5 -92.5q0 -48 -26.5 -82t-71.5 -46zM453 510h-95v-165h95q40 0 64 23.5t24 61.5q0 34 -24.5 57t-63.5 23z" />
    <glyph glyph-name="macron" unicode="&#xaf;" horiz-adv-x="500" 
d="M365 662v-45h-231v45h231z" />
    <glyph glyph-name="degree" unicode="&#xb0;" horiz-adv-x="414" 
d="M82 413q-49 48 -49 124t49 125q49 48 125 48t125 -49t49 -124t-49 -124t-124 -49q-77 0 -126 49zM291 449q33 35 33 88t-33 88q-33 34 -84 34t-84 -34q-33 -35 -33 -88t33 -88q33 -34 84 -34t84 34z" />
    <glyph glyph-name="plusminus" unicode="&#xb1;" 
d="M426 389v-58h-152v-151h-57v151h-152v58h152v149h57v-149h152zM426 57v-57h-361v57h361z" />
    <glyph glyph-name="twosuperior" unicode="&#xb2;" horiz-adv-x="360" 
d="M299 367l-6 -48h-234l-6 44l132 132q54 53 54 101q0 29 -19 46.5t-51 17.5q-50 0 -91 -38l-23 42q49 46 117 46q56 0 90 -29.5t34 -79.5q0 -33 -15.5 -62t-54.5 -68l-102 -104h175z" />
    <glyph glyph-name="threesuperior" unicode="&#xb3;" horiz-adv-x="325" 
d="M152 314q-72 0 -120 45l26 37q38 -35 90 -35q35 0 56 18t21 50q0 30 -20 46.5t-53 16.5h-54v43h48q31 0 50 18.5t19 49.5q0 26 -18.5 42.5t-46.5 16.5q-46 0 -83 -33l-24 37q47 44 112 44q50 0 83 -28.5t33 -72.5q0 -61 -55 -92q66 -25 66 -92q0 -50 -36 -80.5t-94 -30.5
z" />
    <glyph glyph-name="acute" unicode="&#xb4;" horiz-adv-x="500" 
d="M276 563h-49l99 162h70z" />
    <glyph glyph-name="paragraph" unicode="&#xb6;" horiz-adv-x="600" 
d="M46 498q0 86 60 145q60 57 153 57h222v-837h-48v785h-76v-785h-48v443h-50q-94 0 -153 55q-60 54 -60 137z" />
    <glyph glyph-name="periodcentered" unicode="&#xb7;" horiz-adv-x="117" 
d="M23 223q-24 23 -11 54t46 31q22 0 36.5 -14.5t14.5 -35.5t-14.5 -35.5t-36.5 -14.5t-35 15z" />
    <glyph glyph-name="cedilla" unicode="&#xb8;" horiz-adv-x="500" 
d="M232 0h34l-22 -54l21 -7q37 -13 54 -30t17 -43q0 -52 -57 -67.5t-130 14.5l18 38q39 -17 71 -17q50 0 50 31q0 14 -9 23t-32 17l-36 12l-10 21z" />
    <glyph glyph-name="onesuperior" unicode="&#xb9;" horiz-adv-x="315" 
d="M262 364v-47h-205v47h76v287l-67 -8l-7 47l127 15v-341h76z" />
    <glyph glyph-name="ordmasculine" unicode="&#xba;" horiz-adv-x="413" 
d="M206 343q-73 0 -118 52q-46 50 -46 132t46 132q45 51 118 51q72 0 119 -51q45 -51 45 -132q0 -82 -45 -133t-119 -51zM129 431q28 -37 77 -37q48 0 78 37q29 37 29 96t-29 95.5t-78 36.5q-48 0 -77 -36.5t-29 -95.5q0 -58 29 -96z" />
    <glyph glyph-name="guillemotright" unicode="&#xbb;" horiz-adv-x="618" 
d="M252 278l-209 160l26 49l235 -178v-61l-234 -177l-27 46zM519 278l-209 160l26 49l235 -178v-61l-234 -177l-27 46z" />
    <glyph glyph-name="onequarter" unicode="&#xbc;" horiz-adv-x="763" 
d="M262 364v-47h-205v47h76v287l-67 -8l-7 47l127 15v-341h76zM138 0l459 700h56l-459 -700h-56zM738 135l-8 -46h-51v-89h-50v89h-178l-7 43l178 253l57 2v-252h59zM631 322l-134 -187h132z" />
    <glyph glyph-name="onehalf" unicode="&#xbd;" horiz-adv-x="822" 
d="M262 364v-47h-205v47h76v287l-67 -8l-7 47l127 15v-341h76zM138 0l459 700h56l-459 -700h-56zM761 48l-6 -48h-234l-6 44l132 132q54 52 54 101q0 29 -19 46.5t-51 17.5q-50 0 -91 -38l-23 42q49 46 117 46q56 0 90 -29.5t34 -79.5q0 -33 -15.5 -62t-54.5 -68l-102 -104
h175z" />
    <glyph glyph-name="threequarters" unicode="&#xbe;" horiz-adv-x="768" 
d="M152 314q-72 0 -120 45l26 37q38 -35 90 -35q35 0 56 18t21 50q0 30 -20 46.5t-53 16.5h-54v43h48q31 0 50 18.5t19 49.5q0 26 -18.5 42.5t-46.5 16.5q-46 0 -83 -33l-24 37q47 44 112 44q50 0 83 -28.5t33 -72.5q0 -61 -55 -92q66 -25 66 -92q0 -50 -36 -80.5t-94 -30.5
zM143 0l459 700h56l-459 -700h-56zM743 135l-8 -46h-51v-89h-50v89h-178l-7 43l178 253l57 2v-252h59zM636 322l-134 -187h132z" />
    <glyph glyph-name="questiondown" unicode="&#xbf;" horiz-adv-x="455" 
d="M265 487q21 0 35.5 -14.5t14.5 -35.5t-14.5 -35.5t-35.5 -14.5q-22 0 -36.5 14.5t-14.5 35.5t14.5 35.5t36.5 14.5zM132 98l23 21q44 40 59.5 65.5t15.5 60.5v30h65v-30q0 -52 -20 -84t-75 -82l-22 -20q-37 -32 -53 -60t-16 -65q0 -58 38 -92.5t100 -34.5q94 0 168 67
l33 -50q-91 -75 -203 -75q-88 0 -146 50q-58 49 -58 132q0 51 21.5 87.5t69.5 79.5z" />
    <glyph glyph-name="Agrave" unicode="&#xc0;" horiz-adv-x="705" 
d="M276 935l99 -162h-50l-119 162h70zM186 183l-75 -183h-73l283 700h62l284 -700h-76l-75 183h-330zM351 609l-141 -365h282z" />
    <glyph glyph-name="Aacute" unicode="&#xc1;" horiz-adv-x="705" 
d="M377 773h-49l99 162h70zM186 183l-75 -183h-73l283 700h62l284 -700h-76l-75 183h-330zM351 609l-141 -365h282z" />
    <glyph glyph-name="Acircumflex" unicode="&#xc2;" horiz-adv-x="705" 
d="M492 773h-55l-87 110l-84 -110h-54l117 162h47zM186 183l-75 -183h-73l283 700h62l284 -700h-76l-75 183h-330zM351 609l-141 -365h282z" />
    <glyph glyph-name="Atilde" unicode="&#xc3;" horiz-adv-x="705" 
d="M412 853q31 0 55 38l32 -23q-32 -62 -85 -62q-28 0 -67 17q-36 16 -57 16q-32 0 -55 -38l-31 24q13 29 36 45t50 16q31 0 67 -16q37 -17 55 -17zM186 183l-75 -183h-73l283 700h62l284 -700h-76l-75 183h-330zM351 609l-141 -365h282z" />
    <glyph glyph-name="Adieresis" unicode="&#xc4;" horiz-adv-x="705" 
d="M297 821q-13 -13 -32 -13t-31 13q-13 13 -13 32t13 32q12 13 31 13t32 -13t13 -32t-13 -32zM468 821q-13 -13 -32 -13t-32 13q-13 14 -13 32.5t13 31.5t32 13t32 -13q12 -13 12 -32t-12 -32zM186 183l-75 -183h-73l283 700h62l284 -700h-76l-75 183h-330zM351 609
l-141 -365h282z" />
    <glyph glyph-name="Aring" unicode="&#xc5;" horiz-adv-x="705" 
d="M352 751q-43 0 -72 27.5t-29 69.5q0 41 29 70q29 28 71 28t71 -28q29 -29 29 -70t-29 -69t-70 -28zM312 807q15 -17 39 -17t40 17q15 17 15 42t-15.5 41.5t-39.5 16.5t-39.5 -16.5t-15.5 -41.5q0 -26 16 -42zM186 183l-75 -183h-73l283 700h62l284 -700h-76l-75 183h-330
zM351 609l-141 -365h282z" />
    <glyph glyph-name="AE" unicode="&#xc6;" horiz-adv-x="1071" 
d="M1001 64l-10 -64h-432v183h-314l-130 -183h-77l487 700h457l10 -65h-362v-247h312v-63h-312v-261h371zM559 638l-272 -394h272v394z" />
    <glyph glyph-name="Ccedilla" unicode="&#xc7;" horiz-adv-x="690" 
d="M149 350q0 -132 69 -214t183 -82t185 70l40 -50q-81 -80 -214 -84l-18 -44l21 -7q37 -13 54 -30t17 -43q0 -52 -57 -67.5t-130 14.5l18 38q39 -17 71 -17q50 0 50 31q0 14 -9 23t-32 17l-36 12l-10 21l26 53q-136 7 -219 106q-82 97 -82 253q0 160 90 260t234 100
q139 0 226 -84l-40 -51q-70 70 -185 70q-114 0 -183 -82q-69 -83 -69 -213z" />
    <glyph glyph-name="Egrave" unicode="&#xc8;" horiz-adv-x="630" 
d="M259 935l99 -162h-50l-119 162h70zM561 64l-10 -64h-432v700h423l10 -65h-362v-247h312v-63h-312v-261h371z" />
    <glyph glyph-name="Eacute" unicode="&#xc9;" horiz-adv-x="630" 
d="M358 773h-49l99 162h70zM561 64l-10 -64h-432v700h423l10 -65h-362v-247h312v-63h-312v-261h371z" />
    <glyph glyph-name="Ecircumflex" unicode="&#xca;" horiz-adv-x="630" 
d="M473 773h-55l-87 110l-84 -110h-54l117 162h47zM561 64l-10 -64h-432v700h423l10 -65h-362v-247h312v-63h-312v-261h371z" />
    <glyph glyph-name="Edieresis" unicode="&#xcb;" horiz-adv-x="630" 
d="M279 821q-13 -13 -32 -13t-31 13q-13 13 -13 32t13 32q12 13 31 13t32 -13t13 -32t-13 -32zM450 821q-13 -13 -32 -13t-32 13q-13 14 -13 32.5t13 31.5t32 13t32 -13q12 -13 12 -32t-12 -32zM561 64l-10 -64h-432v700h423l10 -65h-362v-247h312v-63h-312v-261h371z" />
    <glyph glyph-name="Igrave" unicode="&#xcc;" horiz-adv-x="312" 
d="M85 935l99 -162h-50l-119 162h70zM120 700h71v-700h-71v700z" />
    <glyph glyph-name="Iacute" unicode="&#xcd;" horiz-adv-x="312" 
d="M187 773h-49l99 162h70zM120 700h71v-700h-71v700z" />
    <glyph glyph-name="Icircumflex" unicode="&#xce;" horiz-adv-x="312" 
d="M302 773h-55l-87 110l-84 -110h-54l117 162h47zM120 700h71v-700h-71v700z" />
    <glyph glyph-name="Idieresis" unicode="&#xcf;" horiz-adv-x="312" 
d="M108 821q-13 -13 -32 -13t-31 13q-13 13 -13 32t13 32q12 13 31 13t32 -13t13 -32t-13 -32zM279 821q-13 -13 -32 -13t-32 13t-13 32t13 32t32 13t32 -13q12 -13 12 -32t-12 -32zM120 700h71v-700h-71v700z" />
    <glyph glyph-name="Eth" unicode="&#xd0;" horiz-adv-x="758" 
d="M46 331v53h73v316h244q143 0 231 -97t88 -253q0 -155 -88 -252q-89 -98 -231 -98h-244v331h-73zM403 384v-53h-213v-267h173q110 0 178 80t68 206q0 125 -68 205t-178 80h-173v-251h213z" />
    <glyph glyph-name="Ntilde" unicode="&#xd1;" horiz-adv-x="801" 
d="M462 857q31 0 55 38l32 -23q-32 -62 -85 -62q-28 0 -67 17q-36 16 -57 16q-32 0 -55 -38l-31 24q13 29 36 45t50 16q31 0 67 -16q37 -17 55 -17zM611 700h71v-700h-65l-431 586l4 -331v-255h-71v700h68l427 -581l-3 325v256z" />
    <glyph glyph-name="Ograve" unicode="&#xd2;" horiz-adv-x="790" 
d="M320 935l99 -162h-50l-119 162h70zM395 -10q-140 0 -229 101q-90 101 -90 259q0 159 90 259q90 101 229 101q143 0 231 -100t88 -260q0 -159 -88 -259q-89 -101 -231 -101zM395 54q110 0 178 83t68 213t-68 213q-67 82 -178 82q-110 0 -177 -82q-69 -83 -69 -213t69 -213
q68 -83 177 -83z" />
    <glyph glyph-name="Oacute" unicode="&#xd3;" horiz-adv-x="790" 
d="M421 773h-49l99 162h70zM395 -10q-140 0 -229 101q-90 101 -90 259q0 159 90 259q90 101 229 101q143 0 231 -100t88 -260q0 -159 -88 -259q-89 -101 -231 -101zM395 54q110 0 178 83t68 213t-68 213q-67 82 -178 82q-110 0 -177 -82q-69 -83 -69 -213t69 -213
q68 -83 177 -83z" />
    <glyph glyph-name="Ocircumflex" unicode="&#xd4;" horiz-adv-x="790" 
d="M536 773h-55l-87 110l-84 -110h-54l117 162h47zM395 -10q-140 0 -229 101q-90 101 -90 259q0 159 90 259q90 101 229 101q143 0 231 -100t88 -260q0 -159 -88 -259q-89 -101 -231 -101zM395 54q110 0 178 83t68 213t-68 213q-67 82 -178 82q-110 0 -177 -82
q-69 -83 -69 -213t69 -213q68 -83 177 -83z" />
    <glyph glyph-name="Otilde" unicode="&#xd5;" horiz-adv-x="790" 
d="M455 857q31 0 55 38l32 -23q-32 -62 -85 -62q-28 0 -67 17q-36 16 -57 16q-32 0 -55 -38l-31 24q13 29 36 45t50 16q31 0 67 -16q37 -17 55 -17zM395 -10q-140 0 -229 101q-90 101 -90 259q0 159 90 259q90 101 229 101q143 0 231 -100t88 -260q0 -159 -88 -259
q-89 -101 -231 -101zM395 54q110 0 178 83t68 213t-68 213q-67 82 -178 82q-110 0 -177 -82q-69 -83 -69 -213t69 -213q68 -83 177 -83z" />
    <glyph glyph-name="Odieresis" unicode="&#xd6;" horiz-adv-x="790" 
d="M341 821q-13 -13 -32 -13t-31 13q-13 14 -13 32.5t13 31.5q12 13 31 13t32 -13t13 -32t-13 -32zM512 821q-13 -13 -32 -13t-32 13q-13 14 -13 32.5t13 31.5t32 13t32 -13q12 -13 12 -32t-12 -32zM395 -10q-140 0 -229 101q-90 101 -90 259q0 159 90 259q90 101 229 101
q143 0 231 -100t88 -260q0 -159 -88 -259q-89 -101 -231 -101zM395 54q110 0 178 83t68 213t-68 213q-67 82 -178 82q-110 0 -177 -82q-69 -83 -69 -213t69 -213q68 -83 177 -83z" />
    <glyph glyph-name="multiply" unicode="&#xd7;" 
d="M83 457l41 41l121 -121l121 121l42 -42l-121 -121l121 -121l-42 -41l-121 121l-121 -121l-41 41l121 122z" />
    <glyph glyph-name="Oslash" unicode="&#xd8;" horiz-adv-x="790" 
d="M395 -10q-106 0 -183 58l-51 -69h-56l72 99q-101 104 -101 272q0 159 90 259q90 101 229 101q113 0 195 -66l56 77h56l-79 -108q91 -100 91 -263q0 -159 -88 -259q-89 -101 -231 -101zM149 350q0 -132 70 -215l330 453q-64 57 -154 57q-110 0 -177 -82q-69 -83 -69 -213z
M395 54q110 0 178 83t68 213q0 124 -61 203l-328 -450q61 -49 143 -49z" />
    <glyph glyph-name="Ugrave" unicode="&#xd9;" horiz-adv-x="755" 
d="M303 935l99 -162h-50l-119 162h70zM180 700v-427q0 -102 52 -160.5t145 -58.5t145.5 58.5t52.5 160.5v427h71v-427q0 -132 -72 -207.5t-197 -75.5q-124 0 -196 75.5t-72 207.5v427h71z" />
    <glyph glyph-name="Uacute" unicode="&#xda;" horiz-adv-x="755" 
d="M403 773h-49l99 162h70zM180 700v-427q0 -102 52 -160.5t145 -58.5t145.5 58.5t52.5 160.5v427h71v-427q0 -132 -72 -207.5t-197 -75.5q-124 0 -196 75.5t-72 207.5v427h71z" />
    <glyph glyph-name="Ucircumflex" unicode="&#xdb;" horiz-adv-x="755" 
d="M519 773h-55l-87 110l-84 -110h-54l117 162h47zM180 700v-427q0 -102 52 -160.5t145 -58.5t145.5 58.5t52.5 160.5v427h71v-427q0 -132 -72 -207.5t-197 -75.5q-124 0 -196 75.5t-72 207.5v427h71z" />
    <glyph glyph-name="Udieresis" unicode="&#xdc;" horiz-adv-x="755" 
d="M324 821q-13 -13 -32 -13t-31 13q-13 14 -13 32.5t13 31.5q12 13 31 13t32 -13t13 -32t-13 -32zM495 821q-13 -13 -32 -13t-32 13q-13 14 -13 32.5t13 31.5t32 13t32 -13q12 -13 12 -32t-12 -32zM180 700v-427q0 -102 52 -160.5t145 -58.5t145.5 58.5t52.5 160.5v427h71
v-427q0 -132 -72 -207.5t-197 -75.5q-124 0 -196 75.5t-72 207.5v427h71z" />
    <glyph glyph-name="Yacute" unicode="&#xdd;" horiz-adv-x="653" 
d="M354 773h-49l99 162h70zM546 700h80l-264 -424v-276h-71v276l-265 424h82l220 -355z" />
    <glyph glyph-name="Thorn" unicode="&#xde;" horiz-adv-x="660" 
d="M119 700h71v-114h187q102 0 166 -61t64 -158t-65 -159q-67 -62 -170 -62h-182v-146h-71v700zM372 521h-182v-310h182q71 0 115.5 43.5t44.5 112.5q0 67 -45 111q-44 43 -115 43z" />
    <glyph glyph-name="germandbls" unicode="&#xdf;" horiz-adv-x="641" 
d="M366 361q0 -48 59 -74l37 -16q63 -29 90.5 -60t27.5 -85q0 -63 -44 -99.5t-122 -36.5q-84 0 -164 54l26 49q73 -48 140 -48q46 0 71.5 21.5t25.5 59.5q0 30 -17.5 50t-59.5 38l-40 17q-96 41 -96 124q0 49 37.5 86t100.5 48q5 27 5 56q0 56 -37.5 90.5t-95.5 34.5
q-64 0 -103 -40t-39 -105v-525h-66v521q0 96 56.5 152.5t154.5 56.5q84 0 139 -49q56 -50 56 -128q0 -45 -12 -98q-130 -22 -130 -94z" />
    <glyph glyph-name="agrave" unicode="&#xe0;" horiz-adv-x="523" 
d="M166 713l99 -162h-50l-119 162h70zM61 96q0 62 66 106q64 41 224 79v22q0 61 -31 93t-89 32q-68 0 -125 -51l-24 50q69 60 162 60q82 0 126 -46.5t44 -133.5v-192q0 -32 12.5 -46t46.5 -19l-13 -60q-54 6 -79 26t-29 61q-35 -39 -82.5 -63t-90.5 -24q-53 0 -85.5 29.5
t-32.5 76.5zM128 104q0 -29 20 -46t55 -17t74.5 24t73.5 64v105q-117 -25 -170 -56t-53 -74z" />
    <glyph glyph-name="aacute" unicode="&#xe1;" horiz-adv-x="523" 
d="M267 551h-49l99 162h70zM61 96q0 62 66 106q64 41 224 79v22q0 61 -31 93t-89 32q-68 0 -125 -51l-24 50q69 60 162 60q82 0 126 -46.5t44 -133.5v-192q0 -32 12.5 -46t46.5 -19l-13 -60q-54 6 -79 26t-29 61q-35 -39 -82.5 -63t-90.5 -24q-53 0 -85.5 29.5t-32.5 76.5z
M128 104q0 -29 20 -46t55 -17t74.5 24t73.5 64v105q-117 -25 -170 -56t-53 -74z" />
    <glyph glyph-name="acircumflex" unicode="&#xe2;" horiz-adv-x="523" 
d="M382 551h-55l-87 110l-84 -110h-54l117 162h47zM61 96q0 62 66 106q64 41 224 79v22q0 61 -31 93t-89 32q-68 0 -125 -51l-24 50q69 60 162 60q82 0 126 -46.5t44 -133.5v-192q0 -32 12.5 -46t46.5 -19l-13 -60q-54 6 -79 26t-29 61q-35 -39 -82.5 -63t-90.5 -24
q-53 0 -85.5 29.5t-32.5 76.5zM128 104q0 -29 20 -46t55 -17t74.5 24t73.5 64v105q-117 -25 -170 -56t-53 -74z" />
    <glyph glyph-name="atilde" unicode="&#xe3;" horiz-adv-x="523" 
d="M301 635q31 0 55 38l32 -23q-32 -62 -85 -62q-28 0 -67 17q-36 16 -57 16q-32 0 -55 -38l-31 24q13 29 36 45t50 16q31 0 67 -16q37 -17 55 -17zM61 96q0 62 66 106q64 41 224 79v22q0 61 -31 93t-89 32q-68 0 -125 -51l-24 50q69 60 162 60q82 0 126 -46.5t44 -133.5
v-192q0 -32 12.5 -46t46.5 -19l-13 -60q-54 6 -79 26t-29 61q-35 -39 -82.5 -63t-90.5 -24q-53 0 -85.5 29.5t-32.5 76.5zM128 104q0 -29 20 -46t55 -17t74.5 24t73.5 64v105q-117 -25 -170 -56t-53 -74z" />
    <glyph glyph-name="adieresis" unicode="&#xe4;" horiz-adv-x="523" 
d="M185 599q-13 -13 -32 -13t-31 13q-13 13 -13 32t13 32q12 13 31 13t32 -13t13 -32t-13 -32zM356 599q-13 -13 -32 -13t-32 13t-13 32t13 32t32 13t32 -13q12 -13 12 -32t-12 -32zM61 96q0 62 66 106q64 41 224 79v22q0 61 -31 93t-89 32q-68 0 -125 -51l-24 50
q69 60 162 60q82 0 126 -46.5t44 -133.5v-192q0 -32 12.5 -46t46.5 -19l-13 -60q-54 6 -79 26t-29 61q-35 -39 -82.5 -63t-90.5 -24q-53 0 -85.5 29.5t-32.5 76.5zM128 104q0 -29 20 -46t55 -17t74.5 24t73.5 64v105q-117 -25 -170 -56t-53 -74z" />
    <glyph glyph-name="aring" unicode="&#xe5;" horiz-adv-x="523" 
d="M242 537q-43 0 -72 27.5t-29 69.5q0 41 29 70q29 28 71 28t71 -28q29 -29 29 -70t-29 -69t-70 -28zM202 593q15 -17 39 -17t40 17q15 17 15 42t-15.5 41.5t-39.5 16.5t-39.5 -16.5t-15.5 -41.5q0 -26 16 -42zM61 96q0 62 66 106q64 41 224 79v22q0 61 -31 93t-89 32
q-68 0 -125 -51l-24 50q69 60 162 60q82 0 126 -46.5t44 -133.5v-192q0 -32 12.5 -46t46.5 -19l-13 -60q-54 6 -79 26t-29 61q-35 -39 -82.5 -63t-90.5 -24q-53 0 -85.5 29.5t-32.5 76.5zM128 104q0 -29 20 -46t55 -17t74.5 24t73.5 64v105q-117 -25 -170 -56t-53 -74z" />
    <glyph glyph-name="ae" unicode="&#xe6;" horiz-adv-x="814" 
d="M574 47q79 0 135 59l37 -42q-68 -74 -175 -74q-122 0 -182 101q-39 -46 -91.5 -73.5t-103.5 -27.5q-58 0 -96 33.5t-38 86.5q0 69 62 112.5t172 52.5l57 5v23q0 61 -31 93t-90 32q-67 0 -124 -51l-25 50q69 60 161 60q110 0 152 -91q57 91 165 91q88 0 143 -61
q56 -62 56 -161l-8 -12l-338 -18v-2q0 -84 44.5 -135t117.5 -51zM558 433q-58 0 -97 -39.5t-47 -108.5l275 16q-7 61 -42.5 96.5t-88.5 35.5zM127 117q0 -34 22.5 -55t60.5 -21q39 0 82 25t77 67q-18 47 -18 99l-52 -4q-83 -7 -127.5 -36t-44.5 -75z" />
    <glyph glyph-name="ccedilla" unicode="&#xe7;" horiz-adv-x="501" 
d="M128 243v-10q0 -84 42 -134.5t113 -50.5q77 0 134 59l36 -42q-67 -69 -157 -75l-18 -44l21 -7q37 -13 54 -30t17 -43q0 -52 -57 -67.5t-130 14.5l18 38q39 -17 71 -17q50 0 50 31q0 14 -9 23t-32 17l-36 12l-10 21l26 53q-91 7 -145 75q-55 67 -55 172q0 112 60 181
q60 68 160 68q102 0 171 -74l-36 -43q-55 58 -133 58q-71 0 -113 -50.5t-42 -134.5z" />
    <glyph glyph-name="egrave" unicode="&#xe8;" horiz-adv-x="527" 
d="M195 713l99 -162h-50l-119 162h70zM287 47q79 0 135 59l37 -42q-68 -74 -175 -74q-100 0 -161 69q-62 70 -62 179t59 180q58 69 151 69q88 0 143 -61q56 -62 56 -161l-7 -12l-336 -17v-3q0 -84 44 -135t116 -51zM271 433q-57 0 -95.5 -39.5t-46.5 -108.5l273 16
q-7 61 -42.5 96.5t-88.5 35.5z" />
    <glyph glyph-name="eacute" unicode="&#xe9;" horiz-adv-x="527" 
d="M295 551h-49l99 162h70zM287 47q79 0 135 59l37 -42q-68 -74 -175 -74q-100 0 -161 69q-62 70 -62 179t59 180q58 69 151 69q88 0 143 -61q56 -62 56 -161l-7 -12l-336 -17v-3q0 -84 44 -135t116 -51zM271 433q-57 0 -95.5 -39.5t-46.5 -108.5l273 16q-7 61 -42.5 96.5
t-88.5 35.5z" />
    <glyph glyph-name="ecircumflex" unicode="&#xea;" horiz-adv-x="527" 
d="M411 551h-55l-87 110l-84 -110h-54l117 162h47zM287 47q79 0 135 59l37 -42q-68 -74 -175 -74q-100 0 -161 69q-62 70 -62 179t59 180q58 69 151 69q88 0 143 -61q56 -62 56 -161l-7 -12l-336 -17v-3q0 -84 44 -135t116 -51zM271 433q-57 0 -95.5 -39.5t-46.5 -108.5
l273 16q-7 61 -42.5 96.5t-88.5 35.5z" />
    <glyph glyph-name="edieresis" unicode="&#xeb;" horiz-adv-x="527" 
d="M216 599q-13 -13 -32 -13t-31 13q-13 13 -13 32t13 32q12 13 31 13t32 -13t13 -32t-13 -32zM387 599q-13 -13 -32 -13t-32 13t-13 32t13 32t32 13t32 -13q12 -13 12 -32t-12 -32zM287 47q79 0 135 59l37 -42q-68 -74 -175 -74q-100 0 -161 69q-62 70 -62 179t59 180
q58 69 151 69q88 0 143 -61q56 -62 56 -161l-7 -12l-336 -17v-3q0 -84 44 -135t116 -51zM271 433q-57 0 -95.5 -39.5t-46.5 -108.5l273 16q-7 61 -42.5 96.5t-88.5 35.5z" />
    <glyph glyph-name="igrave" unicode="&#xec;" horiz-adv-x="265" 
d="M63 713l99 -162h-50l-119 162h70zM99 475l66 7v-482h-66v475z" />
    <glyph glyph-name="iacute" unicode="&#xed;" horiz-adv-x="265" 
d="M164 551h-49l99 162h70zM99 475l66 7v-482h-66v475z" />
    <glyph glyph-name="icircumflex" unicode="&#xee;" horiz-adv-x="265" 
d="M279 551h-55l-87 110l-84 -110h-54l117 162h47zM99 475l66 7v-482h-66v475z" />
    <glyph glyph-name="idieresis" unicode="&#xef;" horiz-adv-x="265" 
d="M84 599q-13 -13 -32 -13t-31 13q-13 13 -13 32t13 32q12 13 31 13t32 -13t13 -32t-13 -32zM255 599q-13 -13 -32 -13t-32 13t-13 32t13 32t32 13t32 -13q12 -13 12 -32t-12 -32zM99 475l66 7v-482h-66v475z" />
    <glyph glyph-name="eth" unicode="&#xf0;" horiz-adv-x="576" 
d="M178 688l49 37q65 -43 109 -84l127 61v-47l-95 -45q144 -151 144 -338v-1q-2 -123 -62 -201q-62 -80 -172 -80q-94 0 -155 63q-63 63 -63 156q0 99 58 160q57 62 147 62q111 0 179 -90q-19 132 -131 242l-120 -57v47l86 41q-44 40 -101 74zM279 49q78 0 122.5 59.5
t46.5 161.5q-22 46 -68.5 75.5t-100.5 29.5q-69 0 -109.5 -45t-40.5 -122q0 -69 43 -113q43 -46 107 -46z" />
    <glyph glyph-name="ntilde" unicode="&#xf1;" horiz-adv-x="588" 
d="M362 635q31 0 55 38l32 -23q-32 -62 -85 -62q-28 0 -67 17q-36 16 -57 16q-32 0 -55 -38l-31 24q13 29 36 45t50 16q31 0 67 -16q37 -17 55 -17zM83 475l66 7l14 -125q36 61 87 95.5t107 34.5q65 0 101.5 -43t36.5 -121v-323h-66v311q0 53 -24.5 84t-67.5 31
q-45 0 -91 -36.5t-80 -97.5v-292h-66v319z" />
    <glyph glyph-name="ograve" unicode="&#xf2;" horiz-adv-x="566" 
d="M208 713l99 -162h-50l-119 162h70zM443 59q-61 -69 -160 -69t-160 69q-62 70 -62 179q0 110 62 180q61 69 160 69t160 -69q61 -68 61 -180q0 -111 -61 -179zM172 101q42 -53 111 -53t111 53q42 52 42 137q0 86 -41.5 138t-111.5 52t-112 -52t-42 -138q0 -85 43 -137z" />
    <glyph glyph-name="oacute" unicode="&#xf3;" horiz-adv-x="566" 
d="M308 551h-49l99 162h70zM443 59q-61 -69 -160 -69t-160 69q-62 70 -62 179q0 110 62 180q61 69 160 69t160 -69q61 -68 61 -180q0 -111 -61 -179zM172 101q42 -53 111 -53t111 53q42 52 42 137q0 86 -41.5 138t-111.5 52t-112 -52t-42 -138q0 -85 43 -137z" />
    <glyph glyph-name="ocircumflex" unicode="&#xf4;" horiz-adv-x="566" 
d="M423 551h-55l-87 110l-84 -110h-54l117 162h47zM443 59q-61 -69 -160 -69t-160 69q-62 70 -62 179q0 110 62 180q61 69 160 69t160 -69q61 -68 61 -180q0 -111 -61 -179zM172 101q42 -53 111 -53t111 53q42 52 42 137q0 86 -41.5 138t-111.5 52t-112 -52t-42 -138
q0 -85 43 -137z" />
    <glyph glyph-name="otilde" unicode="&#xf5;" horiz-adv-x="566" 
d="M343 635q31 0 55 38l32 -23q-32 -62 -85 -62q-28 0 -67 17q-36 16 -57 16q-32 0 -55 -38l-31 24q13 29 36 45t50 16q31 0 67 -16q37 -17 55 -17zM443 59q-61 -69 -160 -69t-160 69q-62 70 -62 179q0 110 62 180q61 69 160 69t160 -69q61 -68 61 -180q0 -111 -61 -179z
M172 101q42 -53 111 -53t111 53q42 52 42 137q0 86 -41.5 138t-111.5 52t-112 -52t-42 -138q0 -85 43 -137z" />
    <glyph glyph-name="odieresis" unicode="&#xf6;" horiz-adv-x="566" 
d="M229 599q-13 -13 -32 -13t-31 13q-13 13 -13 32t13 32q12 13 31 13t32 -13t13 -32t-13 -32zM400 599q-13 -13 -32 -13t-32 13t-13 32t13 32t32 13t32 -13q12 -13 12 -32t-12 -32zM443 59q-61 -69 -160 -69t-160 69q-62 70 -62 179q0 110 62 180q61 69 160 69t160 -69
q61 -68 61 -180q0 -111 -61 -179zM172 101q42 -53 111 -53t111 53q42 52 42 137q0 86 -41.5 138t-111.5 52t-112 -52t-42 -138q0 -85 43 -137z" />
    <glyph glyph-name="divide" unicode="&#xf7;" 
d="M199 498q0 19 13.5 32.5t32.5 13.5t33 -13.5t14 -32.5q0 -20 -14 -33.5t-33 -13.5t-32.5 13.5t-13.5 33.5zM427 364v-58h-364v58h364zM213 141q-22 22 -10 50.5t42 28.5q20 0 33.5 -13.5t13.5 -32.5q0 -31 -29.5 -42.5t-49.5 9.5z" />
    <glyph glyph-name="oslash" unicode="&#xf8;" horiz-adv-x="566" 
d="M283 -10q-75 0 -128 40l-38 -51h-49l57 78q-64 67 -64 181q0 110 62 180q61 69 160 69q75 0 128 -40l38 51h49l-57 -78q63 -69 63 -182q0 -111 -61 -179q-61 -69 -160 -69zM128 238q0 -78 36 -128l211 287q-38 32 -92 32q-70 0 -112.5 -52.5t-42.5 -138.5zM283 48
q69 0 111.5 52.5t42.5 137.5q0 76 -35 129l-211 -287q38 -32 92 -32z" />
    <glyph glyph-name="ugrave" unicode="&#xf9;" horiz-adv-x="568" 
d="M205 713l99 -162h-50l-119 162h70zM485 2l-66 -7l-12 111q-34 -53 -85 -84.5t-103 -31.5q-126 0 -126 170v315l65 7v-317q0 -114 84 -114q43 0 86 30.5t74 81.5v312l66 7v-324z" />
    <glyph glyph-name="uacute" unicode="&#xfa;" horiz-adv-x="568" 
d="M304 551h-49l99 162h70zM485 2l-66 -7l-12 111q-34 -53 -85 -84.5t-103 -31.5q-126 0 -126 170v315l65 7v-317q0 -114 84 -114q43 0 86 30.5t74 81.5v312l66 7v-324z" />
    <glyph glyph-name="ucircumflex" unicode="&#xfb;" horiz-adv-x="568" 
d="M421 551h-55l-87 110l-84 -110h-54l117 162h47zM485 2l-66 -7l-12 111q-34 -53 -85 -84.5t-103 -31.5q-126 0 -126 170v315l65 7v-317q0 -114 84 -114q43 0 86 30.5t74 81.5v312l66 7v-324z" />
    <glyph glyph-name="udieresis" unicode="&#xfc;" horiz-adv-x="568" 
d="M226 600q-13 -14 -32 -14t-31 14q-13 14 -13 32.5t13 31.5q12 13 31 13t32 -13t13 -31.5t-13 -32.5zM397 600q-13 -14 -32 -14t-32 14t-13 32.5t13 31.5t32 13t32 -13q12 -13 12 -31.5t-12 -32.5zM485 2l-66 -7l-12 111q-34 -53 -85 -84.5t-103 -31.5q-126 0 -126 170
v315l65 7v-317q0 -114 84 -114q43 0 86 30.5t74 81.5v312l66 7v-324z" />
    <glyph glyph-name="yacute" unicode="&#xfd;" horiz-adv-x="502" 
d="M276 551h-49l99 162h70zM59 -230l-15 60q65 4 98 28q32 24 57 90l20 50l-188 479h70l150 -398l152 398h68l-187 -477h-1l-24 -62q-35 -91 -76 -124q-43 -35 -124 -44z" />
    <glyph glyph-name="thorn" unicode="&#xfe;" horiz-adv-x="572" 
d="M511 254q0 -131 -63 -197q-64 -67 -159 -67q-62 0 -124 28v-238h-66v937l66 8v-339q32 47 78 74t95 27q79 0 126 -63.5t47 -169.5zM320 427q-42 0 -83.5 -28.5t-71.5 -76.5v-246q57 -26 114 -26q75 0 119.5 50.5t44.5 152.5q0 81 -32.5 127.5t-90.5 46.5z" />
    <glyph glyph-name="ydieresis" unicode="&#xff;" horiz-adv-x="502" 
d="M199 599q-13 -13 -32 -13t-31 13q-13 13 -13 32t13 32q12 13 31 13t32 -13t13 -32t-13 -32zM370 599q-13 -13 -32 -13t-32 13t-13 32t13 32t32 13t32 -13q12 -13 12 -32t-12 -32zM59 -230l-15 60q65 4 98 28q32 24 57 90l20 50l-188 479h70l150 -398l152 398h68
l-187 -477h-1l-24 -62q-35 -91 -76 -124q-43 -35 -124 -44z" />
    <glyph glyph-name="Amacron" unicode="&#x100;" horiz-adv-x="705" 
d="M466 872v-45h-231v45h231zM186 183l-75 -183h-73l283 700h62l284 -700h-76l-75 183h-330zM351 609l-141 -365h282z" />
    <glyph glyph-name="amacron" unicode="&#x101;" horiz-adv-x="523" 
d="M356 650v-45h-231v45h231zM61 96q0 62 66 106q64 41 224 79v22q0 61 -31 93t-89 32q-68 0 -125 -51l-24 50q69 60 162 60q82 0 126 -46.5t44 -133.5v-192q0 -32 12.5 -46t46.5 -19l-13 -60q-54 6 -79 26t-29 61q-35 -39 -82.5 -63t-90.5 -24q-53 0 -85.5 29.5t-32.5 76.5
zM128 104q0 -29 20 -46t55 -17t74.5 24t73.5 64v105q-117 -25 -170 -56t-53 -74z" />
    <glyph glyph-name="Abreve" unicode="&#x102;" horiz-adv-x="705" 
d="M228 917h49q1 -35 21 -56t53 -21t53 21t21 56h48q0 -55 -34 -90t-88 -35q-55 0 -89 35t-34 90zM186 183l-75 -183h-73l283 700h62l284 -700h-76l-75 183h-330zM351 609l-141 -365h282z" />
    <glyph glyph-name="abreve" unicode="&#x103;" horiz-adv-x="523" 
d="M118 695h49q1 -35 21 -56t53 -21t53 21t21 56h48q0 -55 -34 -90t-88 -35q-55 0 -89 35t-34 90zM61 96q0 62 66 106q64 41 224 79v22q0 61 -31 93t-89 32q-68 0 -125 -51l-24 50q69 60 162 60q82 0 126 -46.5t44 -133.5v-192q0 -32 12.5 -46t46.5 -19l-13 -60
q-54 6 -79 26t-29 61q-35 -39 -82.5 -63t-90.5 -24q-53 0 -85.5 29.5t-32.5 76.5zM128 104q0 -29 20 -46t55 -17t74.5 24t73.5 64v105q-117 -25 -170 -56t-53 -74z" />
    <glyph glyph-name="Aogonek" unicode="&#x104;" horiz-adv-x="705" 
d="M186 183l-75 -183h-73l283 700h62l284 -700l-58 -45q-51 -38 -51 -73q0 -22 15.5 -34.5t40.5 -12.5q24 0 49 19l22 -38q-38 -28 -81 -28t-70.5 24t-27.5 62q0 56 61 99l35 27h-11l-75 183h-330zM351 609l-141 -365h282z" />
    <glyph glyph-name="aogonek" unicode="&#x105;" horiz-adv-x="523" 
d="M61 96q0 62 66 106q64 41 224 79v22q0 61 -31 93t-89 32q-68 0 -125 -51l-24 50q69 60 162 60q82 0 126 -46.5t44 -133.5v-192q0 -32 12.5 -46t46.5 -19l-13 -60l-55 -39q-49 -31 -49 -69q0 -22 15.5 -34.5t40.5 -12.5q28 0 51 19l23 -38q-37 -28 -84 -28q-43 0 -70.5 24
t-27.5 62q0 52 60 95l44 32q-50 21 -56 76q-35 -39 -82.5 -63t-90.5 -24q-53 0 -85.5 29.5t-32.5 76.5zM128 104q0 -29 20 -46t55 -17t74.5 24t73.5 64v105q-117 -25 -170 -56t-53 -74z" />
    <glyph glyph-name="Cacute" unicode="&#x106;" horiz-adv-x="690" 
d="M425 773h-49l99 162h70zM149 350q0 -132 69 -214t183 -82t185 70l40 -50q-85 -84 -226 -84q-147 0 -235 100q-89 100 -89 260t90 260t234 100q139 0 226 -84l-40 -51q-70 70 -185 70q-114 0 -183 -82q-69 -83 -69 -213z" />
    <glyph glyph-name="cacute" unicode="&#x107;" horiz-adv-x="501" 
d="M305 551h-49l99 162h70zM128 243v-10q0 -84 42 -134.5t113 -50.5q77 0 134 59l36 -42q-73 -75 -172 -75q-100 0 -160 69q-60 67 -60 179t60 181q60 68 160 68q102 0 171 -74l-36 -43q-55 58 -133 58q-71 0 -113 -50.5t-42 -134.5z" />
    <glyph glyph-name="Ccircumflex" unicode="&#x108;" horiz-adv-x="690" 
d="M540 773h-55l-87 110l-84 -110h-54l117 162h47zM149 350q0 -132 69 -214t183 -82t185 70l40 -50q-85 -84 -226 -84q-147 0 -235 100q-89 100 -89 260t90 260t234 100q139 0 226 -84l-40 -51q-70 70 -185 70q-114 0 -183 -82q-69 -83 -69 -213z" />
    <glyph glyph-name="ccircumflex" unicode="&#x109;" horiz-adv-x="501" 
d="M421 551h-55l-87 110l-84 -110h-54l117 162h47zM128 243v-10q0 -84 42 -134.5t113 -50.5q77 0 134 59l36 -42q-73 -75 -172 -75q-100 0 -160 69q-60 67 -60 179t60 181q60 68 160 68q102 0 171 -74l-36 -43q-55 58 -133 58q-71 0 -113 -50.5t-42 -134.5z" />
    <glyph glyph-name="Cdotaccent" unicode="&#x10a;" horiz-adv-x="690" 
d="M399 802q-19 0 -33 14.5t-14 34.5q0 19 14 33t33 14q20 0 33.5 -13.5t13.5 -33.5t-13.5 -34.5t-33.5 -14.5zM149 350q0 -132 69 -214t183 -82t185 70l40 -50q-85 -84 -226 -84q-147 0 -235 100q-89 100 -89 260t90 260t234 100q139 0 226 -84l-40 -51q-70 70 -185 70
q-114 0 -183 -82q-69 -83 -69 -213z" />
    <glyph glyph-name="cdotaccent" unicode="&#x10b;" horiz-adv-x="501" 
d="M279 580q-19 0 -33 14.5t-14 34.5q0 19 14 33t33 14q20 0 33.5 -13.5t13.5 -33.5t-13.5 -34.5t-33.5 -14.5zM128 243v-10q0 -84 42 -134.5t113 -50.5q77 0 134 59l36 -42q-73 -75 -172 -75q-100 0 -160 69q-60 67 -60 179t60 181q60 68 160 68q102 0 171 -74l-36 -43
q-55 58 -133 58q-71 0 -113 -50.5t-42 -134.5z" />
    <glyph glyph-name="Ccaron" unicode="&#x10c;" horiz-adv-x="690" 
d="M484 935h54l-117 -162h-48l-115 162h55l87 -111zM149 350q0 -132 69 -214t183 -82t185 70l40 -50q-85 -84 -226 -84q-147 0 -235 100q-89 100 -89 260t90 260t234 100q139 0 226 -84l-40 -51q-70 70 -185 70q-114 0 -183 -82q-69 -83 -69 -213z" />
    <glyph glyph-name="ccaron" unicode="&#x10d;" horiz-adv-x="501" 
d="M365 713h54l-117 -162h-48l-115 162h55l87 -111zM128 243v-10q0 -84 42 -134.5t113 -50.5q77 0 134 59l36 -42q-73 -75 -172 -75q-100 0 -160 69q-60 67 -60 179t60 181q60 68 160 68q102 0 171 -74l-36 -43q-55 58 -133 58q-71 0 -113 -50.5t-42 -134.5z" />
    <glyph glyph-name="Dcaron" unicode="&#x10e;" horiz-adv-x="758" 
d="M462 935h54l-117 -162h-48l-115 162h55l87 -111zM363 0h-244v700h244q143 0 231 -97t88 -253q0 -155 -88 -252q-89 -98 -231 -98zM363 635h-173v-571h173q110 0 178 80t68 206q0 125 -68 205t-178 80z" />
    <glyph glyph-name="dcaron" unicode="&#x10f;" horiz-adv-x="597" 
d="M61 222q0 117 62 191t159 74q70 0 126 -42v272l66 8v-725h-66v93q-33 -48 -79 -75.5t-94 -27.5q-79 0 -126.5 63t-47.5 169zM568 552h-40l22 168h58zM129 225q0 -82 32.5 -128.5t90.5 -46.5q42 0 84.5 29t71.5 77v230q-53 41 -117 41q-74 0 -118 -55t-44 -147z" />
    <glyph glyph-name="Dcroat" unicode="&#x110;" horiz-adv-x="758" 
d="M46 331v53h73v316h244q143 0 231 -97t88 -253q0 -155 -88 -252q-89 -98 -231 -98h-244v331h-73zM403 384v-53h-213v-267h173q110 0 178 80t68 206q0 125 -68 205t-178 80h-173v-251h213z" />
    <glyph glyph-name="dcroat" unicode="&#x111;" horiz-adv-x="573" 
d="M61 222q0 117 62 191t159 74q70 0 126 -42v128h-128v45h128v99l66 8v-107h73v-45h-73v-573h-66v93q-33 -48 -79 -75.5t-94 -27.5q-79 0 -126.5 63t-47.5 169zM129 225q0 -82 32.5 -128.5t90.5 -46.5q42 0 84.5 29t71.5 77v230q-53 41 -117 41q-74 0 -118 -55t-44 -147z
" />
    <glyph glyph-name="Emacron" unicode="&#x112;" horiz-adv-x="630" 
d="M447 872v-45h-231v45h231zM561 64l-10 -64h-432v700h423l10 -65h-362v-247h312v-63h-312v-261h371z" />
    <glyph glyph-name="emacron" unicode="&#x113;" horiz-adv-x="527" 
d="M383 650v-45h-231v45h231zM287 47q79 0 135 59l37 -42q-68 -74 -175 -74q-100 0 -161 69q-62 70 -62 179t59 180q58 69 151 69q88 0 143 -61q56 -62 56 -161l-7 -12l-336 -17v-3q0 -84 44 -135t116 -51zM271 433q-57 0 -95.5 -39.5t-46.5 -108.5l273 16q-7 61 -42.5 96.5
t-88.5 35.5z" />
    <glyph glyph-name="Ebreve" unicode="&#x114;" horiz-adv-x="630" 
d="M209 917h49q1 -35 21 -56t53 -21t53 21t21 56h48q0 -55 -34 -90t-88 -35q-55 0 -89 35t-34 90zM561 64l-10 -64h-432v700h423l10 -65h-362v-247h312v-63h-312v-261h371z" />
    <glyph glyph-name="ebreve" unicode="&#x115;" horiz-adv-x="527" 
d="M147 695h49q1 -35 21 -56t53 -21t53 21t21 56h48q0 -55 -34 -90t-88 -35q-55 0 -89 35t-34 90zM287 47q79 0 135 59l37 -42q-68 -74 -175 -74q-100 0 -161 69q-62 70 -62 179t59 180q58 69 151 69q88 0 143 -61q56 -62 56 -161l-7 -12l-336 -17v-3q0 -84 44 -135t116 -51
zM271 433q-57 0 -95.5 -39.5t-46.5 -108.5l273 16q-7 61 -42.5 96.5t-88.5 35.5z" />
    <glyph glyph-name="Edotaccent" unicode="&#x116;" horiz-adv-x="630" 
d="M331 802q-19 0 -33 14.5t-14 34.5q0 19 14 33t33 14q20 0 33.5 -13.5t13.5 -33.5t-13.5 -34.5t-33.5 -14.5zM561 64l-10 -64h-432v700h423l10 -65h-362v-247h312v-63h-312v-261h371z" />
    <glyph glyph-name="edotaccent" unicode="&#x117;" horiz-adv-x="527" 
d="M269 580q-19 0 -33 14.5t-14 34.5q0 19 14 33t33 14q20 0 33.5 -13.5t13.5 -33.5t-13.5 -34.5t-33.5 -14.5zM287 47q79 0 135 59l37 -42q-68 -74 -175 -74q-100 0 -161 69q-62 70 -62 179t59 180q58 69 151 69q88 0 143 -61q56 -62 56 -161l-7 -12l-336 -17v-3
q0 -84 44 -135t116 -51zM271 433q-57 0 -95.5 -39.5t-46.5 -108.5l273 16q-7 61 -42.5 96.5t-88.5 35.5z" />
    <glyph glyph-name="Eogonek" unicode="&#x118;" horiz-adv-x="630" 
d="M391 -126q0 56 61 99l35 27h-368v700h423l10 -65h-362v-247h312v-63h-312v-261h371l-10 -64h1l-58 -45q-51 -38 -51 -73q0 -22 15.5 -34.5t40.5 -12.5q24 0 49 19l22 -38q-38 -28 -81 -28t-70.5 24t-27.5 62z" />
    <glyph glyph-name="eogonek" unicode="&#x119;" horiz-adv-x="527" 
d="M253 -126q0 55 65 118q-30 -2 -34 -2q-100 0 -161 69q-62 70 -62 179t59 180q58 69 151 69q88 0 143 -61q56 -62 56 -161l-7 -12l-336 -17v-3q0 -84 44 -135t116 -51q79 0 135 59l37 -42q-19 -21 -42 -36q-112 -87 -112 -144q0 -23 15.5 -36t40.5 -13q27 0 49 19l23 -38
q-37 -28 -82 -28q-42 0 -70 24.5t-28 61.5zM271 433q-57 0 -95.5 -39.5t-46.5 -108.5l273 16q-7 61 -42.5 96.5t-88.5 35.5z" />
    <glyph glyph-name="Ecaron" unicode="&#x11a;" horiz-adv-x="630" 
d="M417 935h54l-117 -162h-48l-115 162h55l87 -111zM561 64l-10 -64h-432v700h423l10 -65h-362v-247h312v-63h-312v-261h371z" />
    <glyph glyph-name="ecaron" unicode="&#x11b;" horiz-adv-x="527" 
d="M355 713h54l-117 -162h-48l-115 162h55l87 -111zM287 47q79 0 135 59l37 -42q-68 -74 -175 -74q-100 0 -161 69q-62 70 -62 179t59 180q58 69 151 69q88 0 143 -61q56 -62 56 -161l-7 -12l-336 -17v-3q0 -84 44 -135t116 -51zM271 433q-57 0 -95.5 -39.5t-46.5 -108.5
l273 16q-7 61 -42.5 96.5t-88.5 35.5z" />
    <glyph glyph-name="Gcircumflex" unicode="&#x11c;" horiz-adv-x="747" 
d="M550 773h-55l-87 110l-84 -110h-54l117 162h47zM415 364h237v-289q-44 -41 -109 -63t-135 -22q-148 0 -240 99q-92 100 -92 261q0 160 93 260q91 100 240 100q142 0 230 -85l-40 -50q-73 70 -188 70q-118 0 -190 -82q-72 -83 -72 -213q0 -131 72 -214q70 -82 189 -82
q101 0 173 51v196h-168v63z" />
    <glyph glyph-name="gcircumflex" unicode="&#x11d;" horiz-adv-x="544" 
d="M408 551h-55l-87 110l-84 -110h-54l117 162h47zM502 -78q0 -66 -68 -110q-69 -42 -177 -42q-97 0 -154.5 36t-57.5 97q0 44 35 77t100 51q-55 22 -55 64q0 46 64 65q-54 18 -85 59.5t-31 97.5q0 76 53.5 123t139.5 47q50 0 87 -15l158 16l-8 -55l-93 3q49 -46 49 -119
t-51.5 -120t-134.5 -49q-83 -9 -83 -40q0 -27 58 -37l104 -19q150 -26 150 -130zM175 231q34 -34 91 -34q58 0 92 33t34 87t-34 87q-35 32 -92 32q-56 0 -91 -33t-35 -86t35 -86zM111 -90q0 -42 39 -64.5t112 -22.5q77 0 124.5 27t47.5 69q0 63 -93 79l-99 16
q-60 -14 -95.5 -42t-35.5 -62z" />
    <glyph glyph-name="Gbreve" unicode="&#x11e;" horiz-adv-x="747" 
d="M286 917h49q1 -35 21 -56t53 -21t53 21t21 56h48q0 -55 -34 -90t-88 -35q-55 0 -89 35t-34 90zM415 364h237v-289q-44 -41 -109 -63t-135 -22q-148 0 -240 99q-92 100 -92 261q0 160 93 260q91 100 240 100q142 0 230 -85l-40 -50q-73 70 -188 70q-118 0 -190 -82
q-72 -83 -72 -213q0 -131 72 -214q70 -82 189 -82q101 0 173 51v196h-168v63z" />
    <glyph glyph-name="gbreve" unicode="&#x11f;" horiz-adv-x="544" 
d="M145 695h49q1 -35 21 -56t53 -21t53 21t21 56h48q0 -55 -34 -90t-88 -35q-55 0 -89 35t-34 90zM502 -78q0 -66 -68 -110q-69 -42 -177 -42q-97 0 -154.5 36t-57.5 97q0 44 35 77t100 51q-55 22 -55 64q0 46 64 65q-54 18 -85 59.5t-31 97.5q0 76 53.5 123t139.5 47
q50 0 87 -15l158 16l-8 -55l-93 3q49 -46 49 -119t-51.5 -120t-134.5 -49q-83 -9 -83 -40q0 -27 58 -37l104 -19q150 -26 150 -130zM175 231q34 -34 91 -34q58 0 92 33t34 87t-34 87q-35 32 -92 32q-56 0 -91 -33t-35 -86t35 -86zM111 -90q0 -42 39 -64.5t112 -22.5
q77 0 124.5 27t47.5 69q0 63 -93 79l-99 16q-60 -14 -95.5 -42t-35.5 -62z" />
    <glyph glyph-name="Gdotaccent" unicode="&#x120;" horiz-adv-x="747" 
d="M408 802q-19 0 -33 14.5t-14 34.5q0 30 29.5 43t51.5 -9q21 -22 9 -52.5t-43 -30.5zM415 364h237v-289q-44 -41 -109 -63t-135 -22q-148 0 -240 99q-92 100 -92 261q0 160 93 260q91 100 240 100q142 0 230 -85l-40 -50q-73 70 -188 70q-118 0 -190 -82q-72 -83 -72 -213
q0 -131 72 -214q70 -82 189 -82q101 0 173 51v196h-168v63z" />
    <glyph glyph-name="gdotaccent" unicode="&#x121;" horiz-adv-x="544" 
d="M267 580q-19 0 -33 14.5t-14 34.5q0 19 14 33t33 14q20 0 33.5 -13.5t13.5 -33.5t-13.5 -34.5t-33.5 -14.5zM502 -78q0 -66 -68 -110q-69 -42 -177 -42q-97 0 -154.5 36t-57.5 97q0 44 35 77t100 51q-55 22 -55 64q0 46 64 65q-54 18 -85 59.5t-31 97.5q0 76 53.5 123
t139.5 47q50 0 87 -15l158 16l-8 -55l-93 3q49 -46 49 -119t-51.5 -120t-134.5 -49q-83 -9 -83 -40q0 -27 58 -37l104 -19q150 -26 150 -130zM175 231q34 -34 91 -34q58 0 92 33t34 87t-34 87q-35 32 -92 32q-56 0 -91 -33t-35 -86t35 -86zM111 -90q0 -42 39 -64.5
t112 -22.5q77 0 124.5 27t47.5 69q0 63 -93 79l-99 16q-60 -14 -95.5 -42t-35.5 -62z" />
    <glyph glyph-name="uni0122" unicode="&#x122;" horiz-adv-x="747" 
d="M415 364h237v-289q-44 -41 -109 -63t-135 -22q-148 0 -240 99q-92 100 -92 261q0 160 93 260q91 100 240 100q142 0 230 -85l-40 -50q-73 70 -188 70q-118 0 -190 -82q-72 -83 -72 -213q0 -131 72 -214q70 -82 189 -82q101 0 173 51v196h-168v63zM382 -217h-42l37 154h63
z" />
    <glyph glyph-name="uni0123" unicode="&#x123;" horiz-adv-x="544" 
d="M294 703h42l-38 -154h-62zM502 -78q0 -66 -68 -110q-69 -42 -177 -42q-97 0 -154.5 36t-57.5 97q0 44 35 77t100 51q-55 22 -55 64q0 46 64 65q-54 18 -85 59.5t-31 97.5q0 76 53.5 123t139.5 47q50 0 87 -15l158 16l-8 -55l-93 3q49 -46 49 -119t-51.5 -120t-134.5 -49
q-83 -9 -83 -40q0 -27 58 -37l104 -19q150 -26 150 -130zM175 231q34 -34 91 -34q58 0 92 33t34 87t-34 87q-35 32 -92 32q-56 0 -91 -33t-35 -86t35 -86zM111 -90q0 -42 39 -64.5t112 -22.5q77 0 124.5 27t47.5 69q0 63 -93 79l-99 16q-60 -14 -95.5 -42t-35.5 -62z" />
    <glyph glyph-name="Hcircumflex" unicode="&#x124;" horiz-adv-x="788" 
d="M534 773h-55l-87 110l-84 -110h-54l117 162h47zM119 700h71v-310h408v310h71v-700h-71v325h-408v-325h-71v700z" />
    <glyph glyph-name="hcircumflex" unicode="&#x125;" horiz-adv-x="587" 
d="M387 793h-55l-87 110l-84 -110h-54l117 162h47zM494 323v-323h-66v311q0 53 -24.5 84t-67.5 31q-45 0 -91 -36.5t-80 -97.5v-292h-66v717l66 8v-364q36 58 87 92t104 34q65 0 101.5 -43t36.5 -121z" />
    <glyph glyph-name="Hbar" unicode="&#x126;" horiz-adv-x="788" 
d="M119 700h71v-140h408v140h71v-140h74v-52h-74v-508h-71v319h-408v-319h-71v508h-74v52h74v140zM190 508v-124h408v124h-408z" />
    <glyph glyph-name="hbar" unicode="&#x127;" horiz-adv-x="587" 
d="M494 323v-323h-66v311q0 53 -24.5 84t-67.5 31q-45 0 -91 -36.5t-80 -97.5v-292h-66v573h-73v45h73v99l66 8v-107h128v-45h-128v-212q36 58 87 92t104 34q65 0 101.5 -43t36.5 -121z" />
    <glyph glyph-name="Itilde" unicode="&#x128;" horiz-adv-x="312" 
d="M223 857q31 0 55 38l32 -23q-32 -62 -85 -62q-28 0 -67 17q-36 16 -57 16q-32 0 -55 -38l-31 24q13 29 36 45t50 16q31 0 67 -16q37 -17 55 -17zM120 700h71v-700h-71v700z" />
    <glyph glyph-name="itilde" unicode="&#x129;" horiz-adv-x="265" 
d="M198 635q31 0 55 38l32 -23q-32 -62 -85 -62q-28 0 -67 17q-36 16 -57 16q-32 0 -55 -38l-31 24q13 29 36 45t50 16q31 0 67 -16q37 -17 55 -17zM99 475l66 7v-482h-66v475z" />
    <glyph glyph-name="Imacron" unicode="&#x12a;" horiz-adv-x="312" 
d="M277 872v-45h-231v45h231zM120 700h71v-700h-71v700z" />
    <glyph glyph-name="imacron" unicode="&#x12b;" horiz-adv-x="265" 
d="M253 650v-45h-231v45h231zM99 475l66 7v-482h-66v475z" />
    <glyph glyph-name="Ibreve" unicode="&#x12c;" horiz-adv-x="312" 
d="M39 917h49q1 -35 21 -56t53 -21t53 21t21 56h48q0 -55 -34 -90t-88 -35q-55 0 -89 35t-34 90zM120 700h71v-700h-71v700z" />
    <glyph glyph-name="ibreve" unicode="&#x12d;" horiz-adv-x="265" 
d="M15 695h49q1 -35 21 -56t53 -21t53 21t21 56h48q0 -55 -34 -90t-88 -35q-55 0 -89 35t-34 90zM99 475l66 7v-482h-66v475z" />
    <glyph glyph-name="Iogonek" unicode="&#x12e;" horiz-adv-x="312" 
d="M57 -127q0 49 52 104l14 15h-3v708h71v-700l-39 -44q-42 -44 -42 -74q0 -22 13.5 -34.5t36.5 -12.5q24 0 50 18l22 -37q-37 -28 -82 -28q-40 0 -66.5 24t-26.5 61z" />
    <glyph glyph-name="iogonek" unicode="&#x12f;" horiz-adv-x="265" 
d="M132 602q-19 0 -33 14t-14 34t13.5 34t33.5 14t33.5 -14t13.5 -34t-13.5 -34t-33.5 -14zM31 -127q0 51 52 103l19 22h-3v477l66 7v-482l-40 -44q-41 -44 -41 -74q0 -22 13.5 -35t36.5 -13t49 18l23 -36q-37 -28 -83 -28q-39 0 -65.5 24t-26.5 61z" />
    <glyph glyph-name="Idotaccent" unicode="&#x130;" horiz-adv-x="312" 
d="M161 802q-19 0 -33 14.5t-14 34.5q0 19 14 33t33 14q20 0 33.5 -13.5t13.5 -33.5t-13.5 -34.5t-33.5 -14.5zM120 700h71v-700h-71v700z" />
    <glyph glyph-name="dotlessi" unicode="&#x131;" horiz-adv-x="265" 
d="M99 475l66 7v-482h-66v475z" />
    <glyph glyph-name="IJ" unicode="&#x132;" horiz-adv-x="732" 
d="M120 700h71v-439h-71v439zM117 70l24 58q95 -74 207 -74q92 0 146 54t54 148v444h71v-444q0 -123 -74 -194q-75 -72 -194 -72q-62 0 -125.5 22t-108.5 58z" />
    <glyph glyph-name="ij" unicode="&#x133;" horiz-adv-x="540" 
d="M132 602q-19 0 -33 14t-14 34t13.5 34t33.5 14t33.5 -14t13.5 -34t-13.5 -34t-33.5 -14zM408 602q-20 0 -34 14t-14 34q0 19 14 33.5t34 14.5q19 0 33 -14.5t14 -33.5t-14 -33.5t-33 -14.5zM99 475l66 7v-482h-66v475zM375 475l65 7v-531q0 -166 -146 -181l-15 60
q50 0 73 28.5t23 92.5v524z" />
    <glyph glyph-name="Jcircumflex" unicode="&#x134;" horiz-adv-x="495" 
d="M480 773h-55l-87 110l-84 -110h-54l117 162h47zM21 45l31 55q52 -46 129 -46q60 0 96.5 40.5t36.5 109.5v496h71v-496q0 -98 -56 -156q-55 -58 -145 -58q-102 0 -163 55z" />
    <glyph glyph-name="jcircumflex" unicode="&#x135;" horiz-adv-x="271" 
d="M287 551h-55l-87 110l-84 -110h-54l117 162h47zM106 475l65 7v-531q0 -166 -146 -181l-15 60q50 0 73 28.5t23 92.5v524z" />
    <glyph glyph-name="uni0136" unicode="&#x136;" horiz-adv-x="691" 
d="M119 0v700h71v-363l348 363h88l-313 -324l332 -376h-90l-294 329l-71 -77v-252h-71zM336 -217h-42l37 154h63z" />
    <glyph glyph-name="uni0137" unicode="&#x137;" horiz-adv-x="520" 
d="M99 717l66 8v-495l232 247h82l-206 -213l229 -264h-83l-193 224l-61 -65v-159h-66v717zM256 -217h-42l37 154h63z" />
    <glyph glyph-name="Lacute" unicode="&#x139;" horiz-adv-x="589" 
d="M181 773h-49l99 162h70zM542 64l-10 -64h-413v700h71v-636h352z" />
    <glyph glyph-name="lacute" unicode="&#x13a;" horiz-adv-x="265" 
d="M164 793h-49l99 162h70zM99 717l66 8v-725h-66v717z" />
    <glyph glyph-name="uni013B" unicode="&#x13b;" horiz-adv-x="589" 
d="M542 64l-10 -64h-413v700h71v-636h352zM302 -217h-42l37 154h63z" />
    <glyph glyph-name="uni013C" unicode="&#x13c;" horiz-adv-x="265" 
d="M99 717l66 8v-725h-66v717zM111 -217h-42l37 154h63z" />
    <glyph glyph-name="Lcaron" unicode="&#x13d;" horiz-adv-x="589" 
d="M370 552h-40l22 168h58zM542 64l-10 -64h-413v700h71v-636h352z" />
    <glyph glyph-name="lcaron" unicode="&#x13e;" horiz-adv-x="290" 
d="M99 717l66 8v-725h-66v717zM264 552h-40l22 168h58z" />
    <glyph glyph-name="Ldot" unicode="&#x13f;" horiz-adv-x="524" 
d="M542 64l-10 -64h-413v700h71v-636h352zM378 349q-24 23 -11 54t46 31q22 0 36.5 -14.5t14.5 -35.5t-14.5 -35.5t-36.5 -14.5q-21 0 -35 15z" />
    <glyph glyph-name="ldot" unicode="&#x140;" horiz-adv-x="359" 
d="M99 717l66 8v-725h-66v717zM276 336q-24 23 -11 54t46 31q22 0 36.5 -14.5t14.5 -35.5t-14.5 -35.5t-36.5 -14.5q-21 0 -35 15z" />
    <glyph glyph-name="Lslash" unicode="&#x141;" horiz-adv-x="589" 
d="M542 64l-10 -64h-413v283l-74 -43v61l74 43v356h71v-315l170 99v-60l-170 -99v-261h352z" />
    <glyph glyph-name="lslash" unicode="&#x142;" horiz-adv-x="283" 
d="M260 480v-53l-87 -49v-378h-66v341l-77 -44v54l77 43v323l66 8v-294z" />
    <glyph glyph-name="Nacute" unicode="&#x143;" horiz-adv-x="801" 
d="M427 773h-49l99 162h70zM611 700h71v-700h-65l-431 586l4 -331v-255h-71v700h68l427 -581l-3 325v256z" />
    <glyph glyph-name="nacute" unicode="&#x144;" horiz-adv-x="588" 
d="M328 551h-49l99 162h70zM83 475l66 7l14 -125q36 61 87 95.5t107 34.5q65 0 101.5 -43t36.5 -121v-323h-66v311q0 53 -24.5 84t-67.5 31q-45 0 -91 -36.5t-80 -97.5v-292h-66v319z" />
    <glyph glyph-name="uni0145" unicode="&#x145;" horiz-adv-x="801" 
d="M611 700h71v-700h-65l-431 586l4 -331v-255h-71v700h68l427 -581l-3 325v256zM375 -217h-42l37 154h63z" />
    <glyph glyph-name="uni0146" unicode="&#x146;" horiz-adv-x="588" 
d="M83 475l66 7l14 -125q36 61 87 95.5t107 34.5q65 0 101.5 -43t36.5 -121v-323h-66v311q0 53 -24.5 84t-67.5 31q-45 0 -91 -36.5t-80 -97.5v-292h-66v319zM277 -217h-42l37 154h63z" />
    <glyph glyph-name="Ncaron" unicode="&#x147;" horiz-adv-x="801" 
d="M486 935h54l-117 -162h-48l-115 162h55l87 -111zM611 700h71v-700h-65l-431 586l4 -331v-255h-71v700h68l427 -581l-3 325v256z" />
    <glyph glyph-name="ncaron" unicode="&#x148;" horiz-adv-x="588" 
d="M387 713h54l-117 -162h-48l-115 162h55l87 -111zM83 475l66 7l14 -125q36 61 87 95.5t107 34.5q65 0 101.5 -43t36.5 -121v-323h-66v311q0 53 -24.5 84t-67.5 31q-45 0 -91 -36.5t-80 -97.5v-292h-66v319z" />
    <glyph glyph-name="Omacron" unicode="&#x14c;" horiz-adv-x="790" 
d="M510 872v-45h-231v45h231zM395 -10q-140 0 -229 101q-90 101 -90 259q0 159 90 259q90 101 229 101q143 0 231 -100t88 -260q0 -159 -88 -259q-89 -101 -231 -101zM395 54q110 0 178 83t68 213t-68 213q-67 82 -178 82q-110 0 -177 -82q-69 -83 -69 -213t69 -213
q68 -83 177 -83z" />
    <glyph glyph-name="omacron" unicode="&#x14d;" horiz-adv-x="566" 
d="M398 650v-45h-231v45h231zM443 59q-61 -69 -160 -69t-160 69q-62 70 -62 179q0 110 62 180q61 69 160 69t160 -69q61 -68 61 -180q0 -111 -61 -179zM172 101q42 -53 111 -53t111 53q42 52 42 137q0 86 -41.5 138t-111.5 52t-112 -52t-42 -138q0 -85 43 -137z" />
    <glyph glyph-name="Obreve" unicode="&#x14e;" horiz-adv-x="790" 
d="M272 917h49q1 -35 21 -56t53 -21t53 21t21 56h48q0 -55 -34 -90t-88 -35q-55 0 -89 35t-34 90zM395 -10q-140 0 -229 101q-90 101 -90 259q0 159 90 259q90 101 229 101q143 0 231 -100t88 -260q0 -159 -88 -259q-89 -101 -231 -101zM395 54q110 0 178 83t68 213t-68 213
q-67 82 -178 82q-110 0 -177 -82q-69 -83 -69 -213t69 -213q68 -83 177 -83z" />
    <glyph glyph-name="obreve" unicode="&#x14f;" horiz-adv-x="566" 
d="M160 695h49q1 -35 21 -56t53 -21t53 21t21 56h48q0 -55 -34 -90t-88 -35q-55 0 -89 35t-34 90zM443 59q-61 -69 -160 -69t-160 69q-62 70 -62 179q0 110 62 180q61 69 160 69t160 -69q61 -68 61 -180q0 -111 -61 -179zM172 101q42 -53 111 -53t111 53q42 52 42 137
q0 86 -41.5 138t-111.5 52t-112 -52t-42 -138q0 -85 43 -137z" />
    <glyph glyph-name="Ohungarumlaut" unicode="&#x150;" horiz-adv-x="790" 
d="M350 773h-43l83 162h68zM484 773h-43l82 162h68zM395 -10q-140 0 -229 101q-90 101 -90 259q0 159 90 259q90 101 229 101q143 0 231 -100t88 -260q0 -159 -88 -259q-89 -101 -231 -101zM395 54q110 0 178 83t68 213t-68 213q-67 82 -178 82q-110 0 -177 -82
q-69 -83 -69 -213t69 -213q68 -83 177 -83z" />
    <glyph glyph-name="ohungarumlaut" unicode="&#x151;" horiz-adv-x="566" 
d="M237 551h-43l83 162h68zM371 551h-43l82 162h68zM443 59q-61 -69 -160 -69t-160 69q-62 70 -62 179q0 110 62 180q61 69 160 69t160 -69q61 -68 61 -180q0 -111 -61 -179zM172 101q42 -53 111 -53t111 53q42 52 42 137q0 86 -41.5 138t-111.5 52t-112 -52t-42 -138
q0 -85 43 -137z" />
    <glyph glyph-name="OE" unicode="&#x152;" horiz-adv-x="1027" 
d="M166 98q-90 98 -90 252t90 252t229 98h544l10 -65h-362v-247h312v-63h-312v-261h371l-10 -64h-553q-140 0 -229 98zM395 64h121v571h-121q-110 0 -177 -79q-69 -80 -69 -206q0 -125 69 -205q68 -81 177 -81z" />
    <glyph glyph-name="oe" unicode="&#x153;" horiz-adv-x="903" 
d="M283 -10q-99 0 -160 69q-62 70 -62 179q0 110 62 180q61 69 160 69q62 0 110.5 -30t76.5 -84q27 54 73.5 84t103.5 30q89 0 144 -61q56 -62 56 -161l-8 -12l-337 -18v-2q0 -85 44 -135.5t117 -50.5q79 0 135 59l37 -42q-68 -74 -175 -74q-132 0 -191 115
q-30 -54 -78.5 -84.5t-107.5 -30.5zM647 433q-58 0 -96.5 -39.5t-46.5 -108.5l274 16q-7 61 -42.5 96.5t-88.5 35.5zM283 48q70 0 113 52.5t43 137.5q0 86 -43 138t-113 52t-112 -52t-42 -138q0 -85 42.5 -137.5t111.5 -52.5z" />
    <glyph glyph-name="Racute" unicode="&#x154;" horiz-adv-x="684" 
d="M387 773h-49l99 162h70zM439 279l168 -279h-81l-162 271h-174v-271h-71v700h255q102 0 167 -59q64 -60 64 -156q0 -77 -45 -132.5t-121 -73.5zM370 638h-180v-306h180q72 0 115.5 42t43.5 111t-43.5 111t-115.5 42z" />
    <glyph glyph-name="racute" unicode="&#x155;" horiz-adv-x="377" 
d="M252 551h-49l99 162h70zM83 475l66 7l14 -123q32 48 80.5 82t93.5 41l9 -69q-108 -6 -180 -106v-307h-66v319z" />
    <glyph glyph-name="uni0156" unicode="&#x156;" horiz-adv-x="684" 
d="M439 279l168 -279h-81l-162 271h-174v-271h-71v700h255q102 0 167 -59q64 -60 64 -156q0 -77 -45 -132.5t-121 -73.5zM370 638h-180v-306h180q72 0 115.5 42t43.5 111t-43.5 111t-115.5 42zM325 -217h-42l37 154h63z" />
    <glyph glyph-name="uni0157" unicode="&#x157;" horiz-adv-x="377" 
d="M83 475l66 7l14 -123q32 48 80.5 82t93.5 41l9 -69q-108 -6 -180 -106v-307h-66v319zM112 -217h-42l37 154h63z" />
    <glyph glyph-name="Rcaron" unicode="&#x158;" horiz-adv-x="684" 
d="M429 935h54l-117 -162h-48l-115 162h55l87 -111zM439 279l168 -279h-81l-162 271h-174v-271h-71v700h255q102 0 167 -59q64 -60 64 -156q0 -77 -45 -132.5t-121 -73.5zM370 638h-180v-306h180q72 0 115.5 42t43.5 111t-43.5 111t-115.5 42z" />
    <glyph glyph-name="rcaron" unicode="&#x159;" horiz-adv-x="377" 
d="M311 713h54l-117 -162h-48l-115 162h55l87 -111zM83 475l66 7l14 -123q32 48 80.5 82t93.5 41l9 -69q-108 -6 -180 -106v-307h-66v319z" />
    <glyph glyph-name="Sacute" unicode="&#x15a;" horiz-adv-x="607" 
d="M318 773h-49l99 162h70zM527 180q0 -85 -60 -137.5t-161 -52.5q-132 0 -242 66l26 60q103 -62 215 -62q68 0 108.5 34t40.5 91q0 91 -121 131l-88 30q-168 56 -168 183q0 84 59 135.5t157 51.5q128 0 227 -63l-26 -59q-93 57 -200 57q-66 0 -105 -32t-39 -86
q0 -80 114 -119l89 -30q90 -31 132 -79t42 -119z" />
    <glyph glyph-name="sacute" unicode="&#x15b;" horiz-adv-x="468" 
d="M257 551h-49l99 162h70zM216 281l60 -15q131 -32 131 -137q0 -64 -45.5 -101.5t-126.5 -37.5q-101 0 -181 56l26 50q77 -51 154 -51q50 0 78 21.5t28 58.5q0 31 -20.5 50.5t-67.5 31.5l-60 15q-123 28 -123 128q0 63 43 100t119 37q94 0 171 -55l-26 -51q-70 51 -144 51
q-45 0 -71 -20.5t-26 -56.5q0 -55 81 -74z" />
    <glyph glyph-name="Scircumflex" unicode="&#x15c;" horiz-adv-x="607" 
d="M434 773h-55l-87 110l-84 -110h-54l117 162h47zM527 180q0 -85 -60 -137.5t-161 -52.5q-132 0 -242 66l26 60q103 -62 215 -62q68 0 108.5 34t40.5 91q0 91 -121 131l-88 30q-168 56 -168 183q0 84 59 135.5t157 51.5q128 0 227 -63l-26 -59q-93 57 -200 57
q-66 0 -105 -32t-39 -86q0 -80 114 -119l89 -30q90 -31 132 -79t42 -119z" />
    <glyph glyph-name="scircumflex" unicode="&#x15d;" horiz-adv-x="468" 
d="M372 551h-55l-87 110l-84 -110h-54l117 162h47zM216 281l60 -15q131 -32 131 -137q0 -64 -45.5 -101.5t-126.5 -37.5q-101 0 -181 56l26 50q77 -51 154 -51q50 0 78 21.5t28 58.5q0 31 -20.5 50.5t-67.5 31.5l-60 15q-123 28 -123 128q0 63 43 100t119 37q94 0 171 -55
l-26 -51q-70 51 -144 51q-45 0 -71 -20.5t-26 -56.5q0 -55 81 -74z" />
    <glyph glyph-name="Scedilla" unicode="&#x15e;" horiz-adv-x="607" 
d="M527 180q0 -82 -56 -134t-151 -56l-18 -44l21 -7q37 -13 54 -30t17 -43q0 -52 -57 -67.5t-130 14.5l18 38q39 -17 71 -17q50 0 50 31q0 14 -9 23t-32 17l-36 12l-10 21l26 52q-121 5 -221 66l26 60q103 -62 215 -62q68 0 108.5 34t40.5 91q0 91 -121 131l-88 30
q-168 56 -168 183q0 84 59 135.5t157 51.5q128 0 227 -63l-26 -59q-93 57 -200 57q-66 0 -105 -32t-39 -86q0 -80 114 -119l89 -30q90 -31 132 -79t42 -119z" />
    <glyph glyph-name="scedilla" unicode="&#x15f;" horiz-adv-x="468" 
d="M216 281l60 -15q131 -32 131 -137q0 -61 -41.5 -98t-115.5 -41l-18 -44l21 -7q37 -13 54 -30t17 -43q0 -52 -57 -67.5t-130 14.5l18 38q39 -17 71 -17q50 0 50 31q0 14 -9 23t-32 17l-36 12l-10 21l26 53q-89 4 -161 55l26 50q77 -51 154 -51q50 0 78 21.5t28 58.5
q0 31 -20.5 50.5t-67.5 31.5l-60 15q-123 28 -123 128q0 63 43 100t119 37q94 0 171 -55l-26 -51q-70 51 -144 51q-45 0 -71 -20.5t-26 -56.5q0 -55 81 -74z" />
    <glyph glyph-name="Scaron" unicode="&#x160;" horiz-adv-x="607" 
d="M378 935h54l-117 -162h-48l-115 162h55l87 -111zM527 180q0 -85 -60 -137.5t-161 -52.5q-132 0 -242 66l26 60q103 -62 215 -62q68 0 108.5 34t40.5 91q0 91 -121 131l-88 30q-168 56 -168 183q0 84 59 135.5t157 51.5q128 0 227 -63l-26 -59q-93 57 -200 57
q-66 0 -105 -32t-39 -86q0 -80 114 -119l89 -30q90 -31 132 -79t42 -119z" />
    <glyph glyph-name="scaron" unicode="&#x161;" horiz-adv-x="468" 
d="M316 713h54l-117 -162h-48l-115 162h55l87 -111zM216 281l60 -15q131 -32 131 -137q0 -64 -45.5 -101.5t-126.5 -37.5q-101 0 -181 56l26 50q77 -51 154 -51q50 0 78 21.5t28 58.5q0 31 -20.5 50.5t-67.5 31.5l-60 15q-123 28 -123 128q0 63 43 100t119 37q94 0 171 -55
l-26 -51q-70 51 -144 51q-45 0 -71 -20.5t-26 -56.5q0 -55 81 -74z" />
    <glyph glyph-name="uni0162" unicode="&#x162;" horiz-adv-x="631" 
d="M579 700l10 -65h-238v-635h-71v635h-238l10 65h527zM284 -217h-42l37 154h63z" />
    <glyph glyph-name="uni0163" unicode="&#x163;" horiz-adv-x="415" 
d="M110 146v274h-82v57h82l4 119l62 7v-126h187l-7 -57h-180v-270q0 -100 90 -100q46 0 90 30l27 -51q-54 -39 -126 -39q-70 0 -108.5 39.5t-38.5 116.5zM231 -217h-42l37 154h63z" />
    <glyph glyph-name="Tcaron" unicode="&#x164;" horiz-adv-x="631" 
d="M397 935h54l-117 -162h-48l-115 162h55l87 -111zM579 700l10 -65h-238v-635h-71v635h-238l10 65h527z" />
    <glyph glyph-name="tcaron" unicode="&#x165;" horiz-adv-x="415" 
d="M289 565h-40l22 168h58zM110 146v274h-82v57h82l4 119l62 7v-126h187l-7 -57h-180v-270q0 -100 90 -100q46 0 90 30l27 -51q-54 -39 -126 -39q-70 0 -108.5 39.5t-38.5 116.5z" />
    <glyph glyph-name="Tbar" unicode="&#x166;" horiz-adv-x="631" 
d="M478 372v-53h-127v-319h-71v319h-134v53h134v263h-238l10 65h527l10 -65h-238v-263h127z" />
    <glyph glyph-name="tbar" unicode="&#x167;" horiz-adv-x="415" 
d="M110 146v113h-72v45h72v116h-82v57h82l4 119l62 7v-126h187l-7 -57h-180v-116h151v-45h-151v-109q0 -100 90 -100q46 0 90 30l27 -51q-54 -39 -126 -39q-70 0 -108.5 39.5t-38.5 116.5z" />
    <glyph glyph-name="Utilde" unicode="&#x168;" horiz-adv-x="755" 
d="M439 857q31 0 55 38l32 -23q-32 -62 -85 -62q-28 0 -67 17q-36 16 -57 16q-32 0 -55 -38l-31 24q13 29 36 45t50 16q31 0 67 -16q37 -17 55 -17zM180 700v-427q0 -102 52 -160.5t145 -58.5t145.5 58.5t52.5 160.5v427h71v-427q0 -132 -72 -207.5t-197 -75.5
q-124 0 -196 75.5t-72 207.5v427h71z" />
    <glyph glyph-name="utilde" unicode="&#x169;" horiz-adv-x="568" 
d="M341 635q31 0 55 38l32 -23q-32 -62 -85 -62q-28 0 -67 17q-36 16 -57 16q-32 0 -55 -38l-31 24q13 29 36 45t50 16q31 0 67 -16q37 -17 55 -17zM485 2l-66 -7l-12 111q-34 -53 -85 -84.5t-103 -31.5q-126 0 -126 170v315l65 7v-317q0 -114 84 -114q43 0 86 30.5t74 81.5
v312l66 7v-324z" />
    <glyph glyph-name="Umacron" unicode="&#x16a;" horiz-adv-x="755" 
d="M493 872v-45h-231v45h231zM180 700v-427q0 -102 52 -160.5t145 -58.5t145.5 58.5t52.5 160.5v427h71v-427q0 -132 -72 -207.5t-197 -75.5q-124 0 -196 75.5t-72 207.5v427h71z" />
    <glyph glyph-name="umacron" unicode="&#x16b;" horiz-adv-x="568" 
d="M395 650v-45h-231v45h231zM485 2l-66 -7l-12 111q-34 -53 -85 -84.5t-103 -31.5q-126 0 -126 170v315l65 7v-317q0 -114 84 -114q43 0 86 30.5t74 81.5v312l66 7v-324z" />
    <glyph glyph-name="Ubreve" unicode="&#x16c;" horiz-adv-x="755" 
d="M255 917h49q1 -35 21 -56t53 -21t53 21t21 56h48q0 -55 -34 -90t-88 -35q-55 0 -89 35t-34 90zM180 700v-427q0 -102 52 -160.5t145 -58.5t145.5 58.5t52.5 160.5v427h71v-427q0 -132 -72 -207.5t-197 -75.5q-124 0 -196 75.5t-72 207.5v427h71z" />
    <glyph glyph-name="ubreve" unicode="&#x16d;" horiz-adv-x="568" 
d="M157 695h49q1 -35 21 -56t53 -21t53 21t21 56h48q0 -55 -34 -90t-88 -35q-55 0 -89 35t-34 90zM485 2l-66 -7l-12 111q-34 -53 -85 -84.5t-103 -31.5q-126 0 -126 170v315l65 7v-317q0 -114 84 -114q43 0 86 30.5t74 81.5v312l66 7v-324z" />
    <glyph glyph-name="Uring" unicode="&#x16e;" horiz-adv-x="755" 
d="M379 757q-43 0 -72 27.5t-29 69.5q0 41 29 70q29 28 71 28t71 -28q29 -29 29 -70t-29 -69t-70 -28zM339 813q15 -17 39 -17t40 17q15 17 15 42t-15.5 41.5t-39.5 16.5t-39.5 -16.5t-15.5 -41.5q0 -26 16 -42zM180 700v-427q0 -102 52 -160.5t145 -58.5t145.5 58.5
t52.5 160.5v427h71v-427q0 -132 -72 -207.5t-197 -75.5q-124 0 -196 75.5t-72 207.5v427h71z" />
    <glyph glyph-name="uring" unicode="&#x16f;" horiz-adv-x="568" 
d="M281 537q-43 0 -72 27.5t-29 69.5q0 41 29 70q29 28 71 28t71 -28q29 -29 29 -70t-29 -69t-70 -28zM241 593q15 -17 39 -17t40 17q15 17 15 42t-15.5 41.5t-39.5 16.5t-39.5 -16.5t-15.5 -41.5q0 -26 16 -42zM485 2l-66 -7l-12 111q-34 -53 -85 -84.5t-103 -31.5
q-126 0 -126 170v315l65 7v-317q0 -114 84 -114q43 0 86 30.5t74 81.5v312l66 7v-324z" />
    <glyph glyph-name="Uhungarumlaut" unicode="&#x170;" horiz-adv-x="755" 
d="M332 773h-43l83 162h68zM466 773h-43l82 162h68zM180 700v-427q0 -102 52 -160.5t145 -58.5t145.5 58.5t52.5 160.5v427h71v-427q0 -132 -72 -207.5t-197 -75.5q-124 0 -196 75.5t-72 207.5v427h71z" />
    <glyph glyph-name="uhungarumlaut" unicode="&#x171;" horiz-adv-x="568" 
d="M234 551h-43l83 162h68zM368 551h-43l82 162h68zM485 2l-66 -7l-12 111q-34 -53 -85 -84.5t-103 -31.5q-126 0 -126 170v315l65 7v-317q0 -114 84 -114q43 0 86 30.5t74 81.5v312l66 7v-324z" />
    <glyph glyph-name="Uogonek" unicode="&#x172;" horiz-adv-x="755" 
d="M180 700v-427q0 -102 52 -160.5t145 -58.5t145.5 58.5t52.5 160.5v427h71v-427q0 -92 -36 -158t-103 -98q-121 -73 -121 -133q0 -33 33.5 -45.5t73.5 14.5l22 -37q-37 -28 -83 -28q-43 0 -71 24.5t-28 61.5q0 53 80 118q-30 -2 -36 -2q-124 0 -196 75.5t-72 207.5v427h71
z" />
    <glyph glyph-name="uogonek" unicode="&#x173;" horiz-adv-x="568" 
d="M324 -126q0 55 62 99l33 26l-12 107q-34 -53 -85 -84.5t-103 -31.5q-126 0 -126 170v315l65 7v-317q0 -114 84 -114q43 0 86 30.5t74 81.5v312l66 7v-324l17 -156l-58 -45q-51 -39 -51 -75q0 -22 15.5 -34.5t40.5 -12.5q27 0 49 19l23 -38q-37 -28 -82 -28
q-42 0 -70 24.5t-28 61.5z" />
    <glyph glyph-name="Wcircumflex" unicode="&#x174;" horiz-adv-x="1009" 
d="M647 773h-55l-87 110l-84 -110h-54l117 162h47zM699 0l-194 612l-196 -612h-70l-185 700h75l73 -279l78 -313l191 592h68l192 -595l78 316l75 279h69l-183 -700h-71z" />
    <glyph glyph-name="wcircumflex" unicode="&#x175;" horiz-adv-x="767" 
d="M524 551h-55l-87 110l-84 -110h-54l117 162h47zM724 477l-137 -475l-64 -7l-139 398l-137 -391l-65 -7l-138 482h70l103 -389l134 389h65l135 -393l104 393h69z" />
    <glyph glyph-name="Ycircumflex" unicode="&#x176;" horiz-adv-x="653" 
d="M470 773h-55l-87 110l-84 -110h-54l117 162h47zM546 700h80l-264 -424v-276h-71v276l-265 424h82l220 -355z" />
    <glyph glyph-name="ycircumflex" unicode="&#x177;" horiz-adv-x="502" 
d="M393 551h-55l-87 110l-84 -110h-54l117 162h47zM59 -230l-15 60q65 4 98 28q32 24 57 90l20 50l-188 479h70l150 -398l152 398h68l-187 -477h-1l-24 -62q-35 -91 -76 -124q-43 -35 -124 -44z" />
    <glyph glyph-name="Ydieresis" unicode="&#x178;" horiz-adv-x="653" 
d="M275 821q-13 -13 -32 -13t-31 13q-13 13 -13 32t13 32q12 13 31 13t32 -13t13 -32t-13 -32zM446 821q-13 -13 -32 -13t-32 13q-13 14 -13 32.5t13 31.5t32 13t32 -13q12 -13 12 -32t-12 -32zM546 700h80l-264 -424v-276h-71v276l-265 424h82l220 -355z" />
    <glyph glyph-name="Zacute" unicode="&#x179;" horiz-adv-x="613" 
d="M337 773h-49l99 162h70zM563 64v-64h-508l-9 58l417 577h-399v65h481l9 -59l-418 -577h427z" />
    <glyph glyph-name="zacute" unicode="&#x17a;" horiz-adv-x="483" 
d="M278 551h-49l99 162h70zM418 57v-57h-364l-10 45l286 375h-266v57h339l11 -45l-287 -375h291z" />
    <glyph glyph-name="Zdotaccent" unicode="&#x17b;" horiz-adv-x="613" 
d="M311 802q-19 0 -33 14.5t-14 34.5q0 19 14 33t33 14q20 0 33.5 -13.5t13.5 -33.5t-13.5 -34.5t-33.5 -14.5zM563 64v-64h-508l-9 58l417 577h-399v65h481l9 -59l-418 -577h427z" />
    <glyph glyph-name="zdotaccent" unicode="&#x17c;" horiz-adv-x="483" 
d="M252 580q-19 0 -33 14.5t-14 34.5q0 30 29.5 43t51.5 -9q21 -22 9 -52.5t-43 -30.5zM418 57v-57h-364l-10 45l286 375h-266v57h339l11 -45l-287 -375h291z" />
    <glyph glyph-name="Zcaron" unicode="&#x17d;" horiz-adv-x="613" 
d="M396 935h54l-117 -162h-48l-115 162h55l87 -111zM563 64v-64h-508l-9 58l417 577h-399v65h481l9 -59l-418 -577h427z" />
    <glyph glyph-name="zcaron" unicode="&#x17e;" horiz-adv-x="483" 
d="M336 713h54l-117 -162h-48l-115 162h55l87 -111zM418 57v-57h-364l-10 45l286 375h-266v57h339l11 -45l-287 -375h291z" />
    <glyph glyph-name="florin" unicode="&#x192;" horiz-adv-x="449" 
d="M393 440l-9 -50h-119l-44 -274q-14 -87 -54.5 -126t-114.5 -39q-20 0 -54 8l9 58q17 -6 39 -6q92 0 109 105l45 274h-94v50h102l20 124q14 87 54.5 126.5t114.5 39.5q17 0 54 -8l-9 -58q-22 6 -40 6q-93 0 -109 -106l-20 -124h120z" />
    <glyph glyph-name="uni0218" unicode="&#x218;" horiz-adv-x="607" 
d="M527 180q0 -85 -60 -137.5t-161 -52.5q-132 0 -242 66l26 60q103 -62 215 -62q68 0 108.5 34t40.5 91q0 91 -121 131l-88 30q-168 56 -168 183q0 84 59 135.5t157 51.5q128 0 227 -63l-26 -59q-93 57 -200 57q-66 0 -105 -32t-39 -86q0 -80 114 -119l89 -30
q90 -31 132 -79t42 -119zM278 -217h-42l37 154h63z" />
    <glyph glyph-name="uni0219" unicode="&#x219;" horiz-adv-x="468" 
d="M216 281l60 -15q131 -32 131 -137q0 -64 -45.5 -101.5t-126.5 -37.5q-101 0 -181 56l26 50q77 -51 154 -51q50 0 78 21.5t28 58.5q0 31 -20.5 50.5t-67.5 31.5l-60 15q-123 28 -123 128q0 63 43 100t119 37q94 0 171 -55l-26 -51q-70 51 -144 51q-45 0 -71 -20.5
t-26 -56.5q0 -55 81 -74zM207 -217h-42l37 154h63z" />
    <glyph glyph-name="uni021A" unicode="&#x21a;" horiz-adv-x="631" 
d="M579 700l10 -65h-238v-635h-71v635h-238l10 65h527zM284 -217h-42l37 154h63z" />
    <glyph glyph-name="uni021B" unicode="&#x21b;" horiz-adv-x="415" 
d="M110 146v274h-82v57h82l4 119l62 7v-126h187l-7 -57h-180v-270q0 -100 90 -100q46 0 90 30l27 -51q-54 -39 -126 -39q-70 0 -108.5 39.5t-38.5 116.5zM231 -217h-42l37 154h63z" />
    <glyph glyph-name="uni0237" unicode="&#x237;" horiz-adv-x="271" 
d="M106 475l65 7v-531q0 -166 -146 -181l-15 60q50 0 73 28.5t23 92.5v524z" />
    <glyph glyph-name="circumflex" unicode="&#x2c6;" horiz-adv-x="500" 
d="M390 563h-55l-87 110l-84 -110h-54l117 162h47z" />
    <glyph glyph-name="caron" unicode="&#x2c7;" horiz-adv-x="501" 
d="M336 725h54l-117 -162h-48l-115 162h55l87 -111z" />
    <glyph glyph-name="breve" unicode="&#x2d8;" horiz-adv-x="500" 
d="M127 707h49q1 -35 21 -56t53 -21t53 21t21 56h48q0 -55 -34 -90t-88 -35q-55 0 -89 35t-34 90z" />
    <glyph glyph-name="dotaccent" unicode="&#x2d9;" horiz-adv-x="500" 
d="M250 592q-19 0 -33 14.5t-14 34.5q0 30 29.5 43t51.5 -9q21 -22 9 -52.5t-43 -30.5z" />
    <glyph glyph-name="ring" unicode="&#x2da;" horiz-adv-x="500" 
d="M251 545q-43 0 -72 27.5t-29 69.5q0 41 29 70q29 28 71 28t71 -28q29 -29 29 -70t-29 -69t-70 -28zM211 601q15 -17 39 -17t40 17q15 17 15 42t-15.5 41.5t-39.5 16.5t-39.5 -16.5t-15.5 -41.5q0 -26 16 -42z" />
    <glyph glyph-name="ogonek" unicode="&#x2db;" horiz-adv-x="299" 
d="M58 -126q0 56 61 99l48 37l52 -10l-58 -45q-51 -37 -51 -73q0 -22 15.5 -34.5t40.5 -12.5q24 0 49 19l22 -38q-38 -28 -81 -28t-70.5 24t-27.5 62z" />
    <glyph glyph-name="tilde" unicode="&#x2dc;" horiz-adv-x="500" 
d="M311 647q31 0 55 38l32 -23q-32 -62 -85 -62q-28 0 -67 17q-36 16 -57 16q-32 0 -55 -38l-31 24q13 29 36 45t50 16q31 0 67 -16q37 -17 55 -17z" />
    <glyph glyph-name="hungarumlaut" unicode="&#x2dd;" horiz-adv-x="500" 
d="M205 563h-43l83 162h68zM339 563h-43l82 162h68z" />
    <glyph glyph-name="uni0394" unicode="&#x394;" horiz-adv-x="705" 
d="M41 38l275 662h73l275 -666l-16 -34h-593zM350 618l-228 -555h459z" />
    <glyph glyph-name="uni03A9" unicode="&#x3a9;" horiz-adv-x="800" 
d="M354 55v-55h-284v55h175q-77 46 -119 124t-42 178q0 157 89 255t227 98q139 0 228 -98q87 -98 87 -255q0 -100 -42 -178t-119 -124h176v-55h-284v55q92 33 144 112t52 190q0 128 -67 208q-68 80 -175 80q-108 0 -175 -81q-68 -82 -68 -207q0 -110 52.5 -189.5
t144.5 -112.5z" />
    <glyph glyph-name="uni03BC" unicode="&#x3bc;" horiz-adv-x="574" 
d="M165 -220h-66v617h2v78l65 7v-318q0 -114 79 -114q42 0 84 30.5t72 81.5v313l65 7v-324l18 -156l-66 -7l-12 111q-33 -53 -80 -84.5t-95 -31.5q-39 0 -66 21v-231z" />
    <glyph glyph-name="pi" unicode="&#x3c0;" horiz-adv-x="589" 
d="M482 -10q-44 0 -69.5 26t-25.5 76v329h-205v-421h-65v421h-100v56h535v-56h-99v-322q0 -49 39 -49q26 0 49 23l25 -49q-34 -34 -84 -34z" />
    <glyph glyph-name="Wgrave" unicode="&#x1e80;" horiz-adv-x="1009" 
d="M431 935l99 -162h-50l-119 162h70zM699 0l-194 612l-196 -612h-70l-185 700h75l73 -279l78 -313l191 592h68l192 -595l78 316l75 279h69l-183 -700h-71z" />
    <glyph glyph-name="wgrave" unicode="&#x1e81;" horiz-adv-x="767" 
d="M308 713l99 -162h-50l-119 162h70zM724 477l-137 -475l-64 -7l-139 398l-137 -391l-65 -7l-138 482h70l103 -389l134 389h65l135 -393l104 393h69z" />
    <glyph glyph-name="Wacute" unicode="&#x1e82;" horiz-adv-x="1009" 
d="M532 773h-49l99 162h70zM699 0l-194 612l-196 -612h-70l-185 700h75l73 -279l78 -313l191 592h68l192 -595l78 316l75 279h69l-183 -700h-71z" />
    <glyph glyph-name="wacute" unicode="&#x1e83;" horiz-adv-x="767" 
d="M408 551h-49l99 162h70zM724 477l-137 -475l-64 -7l-139 398l-137 -391l-65 -7l-138 482h70l103 -389l134 389h65l135 -393l104 393h69z" />
    <glyph glyph-name="Wdieresis" unicode="&#x1e84;" horiz-adv-x="1009" 
d="M451 821q-13 -13 -32 -13t-31 13q-13 14 -13 32.5t13 31.5q12 13 31 13t32 -13t13 -32t-13 -32zM622 821q-13 -13 -32 -13t-32 13q-13 14 -13 32.5t13 31.5t32 13t32 -13q12 -13 12 -32t-12 -32zM699 0l-194 612l-196 -612h-70l-185 700h75l73 -279l78 -313l191 592h68
l192 -595l78 316l75 279h69l-183 -700h-71z" />
    <glyph glyph-name="wdieresis" unicode="&#x1e85;" horiz-adv-x="767" 
d="M329 599q-13 -13 -32 -13t-31 13q-13 13 -13 32t13 32q12 13 31 13t32 -13t13 -32t-13 -32zM500 599q-13 -13 -32 -13t-32 13t-13 32t13 32t32 13t32 -13q12 -13 12 -32t-12 -32zM724 477l-137 -475l-64 -7l-139 398l-137 -391l-65 -7l-138 482h70l103 -389l134 389h65
l135 -393l104 393h69z" />
    <glyph glyph-name="Ygrave" unicode="&#x1ef2;" horiz-adv-x="653" 
d="M253 935l99 -162h-50l-119 162h70zM546 700h80l-264 -424v-276h-71v276l-265 424h82l220 -355z" />
    <glyph glyph-name="ygrave" unicode="&#x1ef3;" horiz-adv-x="502" 
d="M177 713l99 -162h-50l-119 162h70zM59 -230l-15 60q65 4 98 28q32 24 57 90l20 50l-188 479h70l150 -398l152 398h68l-187 -477h-1l-24 -62q-35 -91 -76 -124q-43 -35 -124 -44z" />
    <glyph glyph-name="endash" unicode="&#x2013;" horiz-adv-x="500" 
d="M480 319v-57h-460v57h460z" />
    <glyph glyph-name="emdash" unicode="&#x2014;" horiz-adv-x="1000" 
d="M980 319v-57h-960v57h960z" />
    <glyph glyph-name="quoteleft" unicode="&#x2018;" horiz-adv-x="219" 
d="M110 720h58l-40 -204h-78z" />
    <glyph glyph-name="quoteright" unicode="&#x2019;" horiz-adv-x="219" 
d="M108 516h-58l40 204h78z" />
    <glyph glyph-name="quotesinglbase" unicode="&#x201a;" horiz-adv-x="219" 
d="M99 -119h-58l40 204h79z" />
    <glyph glyph-name="quotedblleft" unicode="&#x201c;" horiz-adv-x="398" 
d="M289 720h58l-40 -204h-78zM110 720h58l-40 -204h-78z" />
    <glyph glyph-name="quotedblright" unicode="&#x201d;" horiz-adv-x="398" 
d="M108 516h-58l40 204h78zM287 516h-58l40 204h78z" />
    <glyph glyph-name="quotedblbase" unicode="&#x201e;" horiz-adv-x="398" 
d="M99 -119h-58l40 204h79zM278 -119h-58l40 204h79z" />
    <glyph glyph-name="dagger" unicode="&#x2020;" horiz-adv-x="470" 
d="M432 525l-9 -58h-156v-604h-64v604h-156l-9 58h165v195h64v-195h165z" />
    <glyph glyph-name="daggerdbl" unicode="&#x2021;" horiz-adv-x="470" 
d="M432 244l-9 -57h-156v-324h-64v324h-156l-9 57h165v231h-156l-9 57h165v188h64v-188h165l-9 -57h-156v-231h165z" />
    <glyph glyph-name="bullet" unicode="&#x2022;" horiz-adv-x="259" 
d="M177 288q-20 -20 -47.5 -20t-47.5 20t-20 47q0 28 19.5 47.5t47.5 19.5q45 0 62 -42t-14 -72z" />
    <glyph glyph-name="ellipsis" unicode="&#x2026;" horiz-adv-x="702" 
d="M70 6q-15 14 -15 35t15 36q14 14 35 14t36 -14q14 -15 14 -36t-14 -35q-15 -15 -36 -15t-35 15zM316 6q-15 14 -15 35t15 36q14 14 35 14t36 -14q14 -15 14 -36t-14 -35q-15 -15 -36 -15t-35 15zM562 6q-15 14 -15 35t15 36q14 14 35 14t36 -14q14 -15 14 -36t-14 -35
q-15 -15 -36 -15t-35 15z" />
    <glyph glyph-name="perthousand" unicode="&#x2030;" horiz-adv-x="1126" 
d="M198 396q-70 0 -113.5 43.5t-43.5 113.5t43.5 113.5t113.5 43.5q67 0 110 -44t43 -113t-43 -113t-110 -44zM89 0l524 700h64l-524 -700h-64zM197 443q45 0 72.5 30.5t27.5 79.5t-27.5 79t-72.5 30q-46 0 -73.5 -30t-27.5 -79q0 -50 27.5 -80t73.5 -30zM931 -10
q-70 0 -113.5 43.5t-43.5 113.5t43.5 113.5t113.5 43.5q67 0 110 -44t43 -113t-43 -113t-110 -44zM572 -10q-70 0 -113.5 43.5t-43.5 113.5t43.5 113.5t113.5 43.5q67 0 110 -44t43 -113t-43 -113t-110 -44zM857 68q28 -31 73 -31t73 31q28 29 28 79t-28 79q-28 30 -73 30
q-44 0 -73 -30q-28 -29 -28 -79t28 -79zM571 37q45 0 72.5 30.5t27.5 79.5t-27.5 79t-72.5 30q-46 0 -73.5 -30t-27.5 -79q0 -50 27.5 -80t73.5 -30z" />
    <glyph glyph-name="guilsinglleft" unicode="&#x2039;" horiz-adv-x="351" 
d="M99 279l208 -161l-26 -47l-235 178v60l235 178l26 -48z" />
    <glyph glyph-name="guilsinglright" unicode="&#x203a;" horiz-adv-x="351" 
d="M252 278l-209 160l26 49l235 -178v-61l-234 -177l-27 46z" />
    <glyph glyph-name="fraction" unicode="&#x2044;" horiz-adv-x="147" 
d="M-184 0l459 700h56l-459 -700h-56z" />
    <glyph glyph-name="uni2070" unicode="&#x2070;" horiz-adv-x="352" 
d="M287 369q-43 -55 -111 -55t-111 55q-44 55 -44 143t44 144q43 54 111 54t111 -54q43 -55 43 -144q0 -90 -43 -143zM104 403q27 -42 72 -42q44 0 73 42q27 42 27 109t-27 109q-29 41 -73 41q-45 0 -72 -41q-28 -41 -28 -109t28 -109z" />
    <glyph glyph-name="uni2074" unicode="&#x2074;" horiz-adv-x="316" 
d="M291 451l-8 -46h-51v-89h-50v89h-178l-7 43l178 253l57 2v-252h59zM184 638l-134 -187h132z" />
    <glyph glyph-name="Euro" unicode="&#x20ac;" horiz-adv-x="682" 
d="M26 301h80q-3 49 0 98h-80v48h87q24 119 104 192q80 71 195 71q120 0 208 -85l-41 -47q-67 69 -166 69q-87 0 -147.5 -53.5t-81.5 -146.5h313l-11 -48h-310q-2 -42 -2 -49q0 -25 3 -49h287l-11 -49h-268q21 -93 81.5 -146.5t146.5 -53.5q97 0 166 69l41 -47
q-87 -84 -208 -84q-114 0 -194 71q-79 70 -105 191h-87v49z" />
    <glyph glyph-name="uni20B9" unicode="&#x20b9;" horiz-adv-x="601" 
d="M163 274l310 -274h-96l-307 274v52h123q69 0 112 38.5t49 104.5h-284v50h283q-9 60 -53 95.5t-111 35.5h-119v50h478l-9 -50h-192q72 -46 82 -131h119l-9 -50h-109q-8 -87 -69 -141t-157 -54h-41z" />
    <glyph glyph-name="uni2113" unicode="&#x2113;" horiz-adv-x="449" 
d="M329 78l30 -43q-42 -45 -111 -45q-60 0 -97 40t-37 107v59l-59 -29l-17 51l76 35v307q0 67 36.5 108.5t96.5 41.5q59 0 93.5 -45.5t34.5 -123.5q0 -103 -51.5 -187t-146.5 -128h-1v-82q0 -44 22 -71t56 -27q45 0 75 32zM176 551v-267q138 86 138 258q0 53 -18 82t-51 29
q-32 0 -50.5 -27t-18.5 -75z" />
    <glyph glyph-name="trademark" unicode="&#x2122;" horiz-adv-x="794" 
d="M285 700l6 -42h-114v-308h-46v308h-113l6 42h261zM385 614l-5 -148l-5 -116h-46l17 350h45l134 -301l136 301h45l16 -350h-46l-6 115l-5 145l-117 -260h-45z" />
    <glyph glyph-name="estimated" unicode="&#x212e;" horiz-adv-x="813" 
d="M774 314v-9h-583q-5 0 -5 -4v-176q0 -12 8 -20q92 -96 221 -96q137 0 232 107h52q-51 -59 -126 -92.5t-159 -33.5q-148 0 -254 95q-106 94 -106 229t106 229q106 95 254 95t255 -95q105 -95 105 -229zM642 328v178q0 12 -9 21q-92 92 -218 92q-128 0 -220 -95
q-9 -9 -9 -22v-174q0 -5 5 -5h447q4 0 4 5z" />
    <glyph glyph-name="partialdiff" unicode="&#x2202;" horiz-adv-x="566" 
d="M228 -10q-83 0 -133 56t-50 141q0 121 73 209q72 87 187 87q89 0 138 -72q-34 174 -192 278l51 36q200 -147 200 -381q0 -54 -9 -106q-20 -111 -92 -179q-73 -69 -173 -69zM236 45q84 0 138 72t54 171q0 64 -33.5 102t-90.5 38q-87 0 -140 -72q-52 -71 -52 -167
q0 -68 32.5 -106t91.5 -38z" />
    <glyph glyph-name="product" unicode="&#x220f;" horiz-adv-x="705" 
d="M680 700v-62h-115v-748h-71v748h-282v-748h-72v748h-115v62h655z" />
    <glyph glyph-name="summation" unicode="&#x2211;" horiz-adv-x="559" 
d="M119 -45h388v-65h-458l-9 65l259 336l-261 344l9 65h451v-65h-380l261 -343z" />
    <glyph glyph-name="minus" unicode="&#x2212;" 
d="M426 364v-58h-361v58h361z" />
    <glyph glyph-name="uni2215" unicode="&#x2215;" horiz-adv-x="264" 
d="M-184 0l459 700h56l-459 -700h-56z" />
    <glyph glyph-name="radical" unicode="&#x221a;" horiz-adv-x="628" 
d="M21 374h147l121 -296l249 622h64l-280 -700h-67l-128 312h-106v62z" />
    <glyph glyph-name="infinity" unicode="&#x221e;" horiz-adv-x="543" 
d="M491 431q32 -38 32 -95t-32 -94q-33 -37 -86 -37q-63 0 -115 67l-20 26l-17 -22q-54 -71 -118 -71q-52 0 -83.5 36t-31.5 95q0 58 32.5 94.5t84.5 36.5q61 0 115 -68l20 -27l17 23q53 72 118 72q53 0 84 -36zM404 419q-42 0 -81 -51l-24 -33l25 -33q37 -49 81 -49
q30 0 48.5 23t18.5 60t-19 60t-49 23zM90 396q-19 -22 -19 -60t19 -60q18 -23 48 -23q43 0 80 49l26 33l-26 34q-39 50 -81 50q-29 0 -47 -23z" />
    <glyph glyph-name="integral" unicode="&#x222b;" horiz-adv-x="470" 
d="M307 564l-79 -448q-16 -87 -56 -126t-113 -39q-17 0 -54 8l9 58q18 -6 40 -6q46 0 72 25t37 80l79 448q16 88 55.5 127t113.5 39q17 0 54 -8l-9 -58q-23 6 -40 6q-46 0 -72 -25.5t-37 -80.5z" />
    <glyph glyph-name="approxequal" unicode="&#x2248;" 
d="M324 438q40 0 72 35l26 -40q-34 -55 -104 -55q-31 0 -87 25q-35 18 -65 18q-40 0 -72 -38l-27 40q36 58 107 58q31 0 80 -23q42 -20 70 -20zM324 251q40 0 72 35l26 -40q-36 -55 -104 -55q-27 0 -87 26q-37 17 -65 17q-39 0 -72 -37l-27 39q36 58 107 58q30 0 80 -22
q39 -21 70 -21z" />
    <glyph glyph-name="notequal" unicode="&#x2260;" 
d="M426 270v-57h-202l-51 -122h-60l51 122h-99v57h123l54 130h-177v58h201l51 122h61l-51 -122h99v-58h-123l-55 -130h178z" />
    <glyph glyph-name="lessequal" unicode="&#x2264;" 
d="M135 348l291 -121v-62l-361 150v66l361 154v-64zM426 57v-57h-361v57h361z" />
    <glyph glyph-name="greaterequal" unicode="&#x2265;" 
d="M356 350l-291 121v64l361 -151v-66l-361 -153v62zM426 0h-361v57h361v-57z" />
    <glyph glyph-name="lozenge" unicode="&#x25ca;" horiz-adv-x="495" 
d="M45 332l-9 2l178 332h66l178 -332l-9 -2l9 -1l-178 -331h-66l-178 331zM246 607l-147 -272l149 -276l147 272z" />
    <glyph glyph-name="uniF6C3" unicode="&#xf6c3;" horiz-adv-x="500" 
d="M223 -217h-42l37 154h63z" />
    <glyph glyph-name="NULL" horiz-adv-x="0" 
 />
    <glyph glyph-name="CR" horiz-adv-x="333" 
 />
    <glyph glyph-name="CR.1" horiz-adv-x="0" 
 />
    <glyph glyph-name="Delta" horiz-adv-x="705" 
d="M41 38l275 662h73l275 -666l-16 -34h-593zM350 618l-228 -555h459z" />
    <glyph glyph-name="Omega" horiz-adv-x="800" 
d="M354 55v-55h-284v55h175q-77 46 -119 124t-42 178q0 157 89 255t227 98q139 0 228 -98q87 -98 87 -255q0 -100 -42 -178t-119 -124h176v-55h-284v55q92 33 144 112t52 190q0 128 -67 208q-68 80 -175 80q-108 0 -175 -81q-68 -82 -68 -207q0 -110 52.5 -189.5
t144.5 -112.5z" />
    <glyph glyph-name="caron.alt" horiz-adv-x="500" 
d="M249 552h-40l22 168h58z" />
    <glyph glyph-name="i.dot" horiz-adv-x="265" 
d="M132 602q-19 0 -33 14t-14 34t13.5 34t33.5 14t33.5 -14t13.5 -34t-13.5 -34t-33.5 -14zM99 475l66 7v-482h-66v475z" />
    <glyph glyph-name="revcommaaccent" horiz-adv-x="500" 
d="M277 715h42l-38 -154h-62z" />
    </font>
</defs>
</svg>
